<?xml version="1.0" encoding="UTF-8"?>
<!DOCTYPE svg PUBLIC "-//W3C//DTD SVG 1.1//EN" "http://www.w3.org/Graphics/SVG/1.1/DTD/svg11.dtd">
<svg xmlns="http://www.w3.org/2000/svg" version="1.1" width="480px" height="476px" style="shape-rendering:geometricPrecision; text-rendering:geometricPrecision; image-rendering:optimizeQuality; fill-rule:evenodd; clip-rule:evenodd" xmlns:xlink="http://www.w3.org/1999/xlink">
<g><path style="opacity:0.983" fill="#ef831a" d="M 71.5,-0.5 C 182.5,-0.5 293.5,-0.5 404.5,-0.5C 404.667,77.1674 404.5,154.834 404,232.5C 399.849,299.604 368.016,348.437 308.5,379C 251.476,403.433 196.81,399.099 144.5,366C 101.075,334.995 76.9079,292.828 72,239.5C 71.5,159.501 71.3333,79.5007 71.5,-0.5 Z"/></g>
<g><path style="opacity:1" fill="#b4128a" d="M 121.5,6.5 C 126.017,7.16646 130.683,7.83313 135.5,8.5C 134.833,9.5 134.167,10.5 133.5,11.5C 134.811,12.2575 135.311,13.2575 135,14.5C 133.455,13.1787 132.289,13.5121 131.5,15.5C 134.5,17.8333 134.167,19.5 130.5,20.5C 129.304,20.1543 129.304,19.6543 130.5,19C 129.5,18.3333 128.5,18.3333 127.5,19C 127.112,20.8082 127.112,22.4748 127.5,24C 125.208,25.2899 123.208,26.9565 121.5,29C 123.283,29.2323 124.95,28.7323 126.5,27.5C 127.167,27.8333 127.833,28.1667 128.5,28.5C 128,29.5 127.5,30.5 127,31.5C 125.644,30.6198 124.144,30.2865 122.5,30.5C 122.509,32.3084 122.009,33.9751 121,35.5C 117.801,34.7636 117.635,35.5969 120.5,38C 118.789,39.1332 118.289,40.6332 119,42.5C 119.612,39.9683 121.112,39.1349 123.5,40C 122.773,41.3988 122.273,42.8988 122,44.5C 121.667,43.8333 121.333,43.1667 121,42.5C 119.427,43.0865 117.927,44.2531 116.5,46C 117.67,47.7547 119.337,48.7547 121.5,49C 119.187,49.662 116.854,50.162 114.5,50.5C 110.614,46.4188 107.448,41.7521 105,36.5C 100.604,74.3843 115.104,102.051 148.5,119.5C 147.668,120.329 148.001,121.162 149.5,122C 146.978,123.686 147.311,125.019 150.5,126C 148.881,126.236 147.881,127.069 147.5,128.5C 130.341,118.677 116.008,105.677 104.5,89.5C 100.494,111.349 104.66,131.349 117,149.5C 124.849,157.843 134.016,164.343 144.5,169C 160.167,174.667 175.833,180.333 191.5,186C 203.635,190.466 211.135,198.966 214,211.5C 214.5,228.163 214.667,244.83 214.5,261.5C 214.113,252.486 213.113,243.486 211.5,234.5C 211.833,233.833 212.167,233.167 212.5,232.5C 211.753,232.264 210.92,231.93 210,231.5C 209.077,232.759 208.243,234.092 207.5,235.5C 206.817,235.137 206.15,234.804 205.5,234.5C 205.823,228.31 205.49,222.31 204.5,216.5C 203.798,207.599 199.798,200.432 192.5,195C 176.954,187.818 160.954,181.818 144.5,177C 129.023,171.183 116.856,161.349 108,147.5C 107.5,155.493 107.334,163.493 107.5,171.5C 107.565,171.938 107.399,172.272 107,172.5C 104.891,171.965 104.391,170.965 105.5,169.5C 103.922,168.702 102.256,168.202 100.5,168C 101.167,167.667 101.833,167.333 102.5,167C 99.9093,162.322 97.4093,157.488 95,152.5C 94.195,154.901 93.3617,154.734 92.5,152C 93.1667,151 93.8333,150 94.5,149C 93.2559,148.544 92.4226,149.044 92,150.5C 91.3162,149.216 91.4829,148.049 92.5,147C 91.1667,146.667 89.8333,146.333 88.5,146C 89.1667,145.667 89.8333,145.333 90.5,145C 89.0716,142.815 87.4049,140.815 85.5,139C 86.1667,138.667 86.8333,138.333 87.5,138C 86.3241,135.314 84.6575,132.981 82.5,131C 84.2826,129.933 84.7826,128.433 84,126.5C 83.6667,127.5 83.3333,128.5 83,129.5C 82.2904,128.027 81.1238,127.36 79.5,127.5C 79.5,87.1667 79.5,46.8333 79.5,6.5C 93.5,6.5 107.5,6.5 121.5,6.5 Z"/></g>
<g><path style="opacity:1" fill="#c00c8f" d="M 121.5,6.5 C 140.167,6.5 158.833,6.5 177.5,6.5C 182.316,7.32614 187.316,7.82614 192.5,8C 190.884,8.61524 189.551,9.61524 188.5,11C 186.899,11.2734 185.399,11.7734 184,12.5C 182.334,11.6598 182.167,12.1598 183.5,14C 176.392,19.7729 170.392,25.7729 165.5,32C 165.833,32.3333 166.167,32.6667 166.5,33C 165.167,33.6667 163.833,34.3333 162.5,35C 162.799,38.8104 161.133,42.4771 157.5,46C 157.957,46.414 158.291,46.914 158.5,47.5C 156.833,50.1667 155.167,52.8333 153.5,55.5C 154.167,59.3574 153.833,63.1908 152.5,67C 152.619,71.2884 152.619,75.7884 152.5,80.5C 137.154,73.8127 124.487,63.8127 114.5,50.5C 116.854,50.162 119.187,49.662 121.5,49C 119.337,48.7547 117.67,47.7547 116.5,46C 117.927,44.2531 119.427,43.0865 121,42.5C 121.333,43.1667 121.667,43.8333 122,44.5C 122.273,42.8988 122.773,41.3988 123.5,40C 121.112,39.1349 119.612,39.9683 119,42.5C 118.289,40.6332 118.789,39.1332 120.5,38C 117.635,35.5969 117.801,34.7636 121,35.5C 122.009,33.9751 122.509,32.3084 122.5,30.5C 124.144,30.2865 125.644,30.6198 127,31.5C 127.5,30.5 128,29.5 128.5,28.5C 127.833,28.1667 127.167,27.8333 126.5,27.5C 124.95,28.7323 123.283,29.2323 121.5,29C 123.208,26.9565 125.208,25.2899 127.5,24C 127.112,22.4748 127.112,20.8082 127.5,19C 128.5,18.3333 129.5,18.3333 130.5,19C 129.304,19.6543 129.304,20.1543 130.5,20.5C 134.167,19.5 134.5,17.8333 131.5,15.5C 132.289,13.5121 133.455,13.1787 135,14.5C 135.311,13.2575 134.811,12.2575 133.5,11.5C 134.167,10.5 134.833,9.5 135.5,8.5C 130.683,7.83313 126.017,7.16646 121.5,6.5 Z"/></g>
<g><path style="opacity:1" fill="#ca0993" d="M 177.5,6.5 C 213.833,6.5 250.167,6.5 286.5,6.5C 281.684,7.32614 276.684,7.82614 271.5,8C 272.667,9.16667 273.833,10.3333 275,11.5C 276.06,11.7455 277.227,11.7455 278.5,11.5C 282.526,16.0118 286.36,20.0118 290,23.5C 290.333,22.8333 290.667,22.1667 291,21.5C 291.309,22.7659 291.809,23.9326 292.5,25C 292.167,25.3333 291.833,25.6667 291.5,26C 292.974,27.3161 294.641,28.3161 296.5,29C 296.167,29.3333 295.833,29.6667 295.5,30C 301.788,38.1253 306.121,47.2919 308.5,57.5C 308.968,59.1338 309.968,60.3005 311.5,61C 310.692,61.3076 310.025,61.8076 309.5,62.5C 310.544,70.9444 311.211,78.611 311.5,85.5C 299.915,90.0285 288.249,94.3618 276.5,98.5C 277.457,95.8318 279.457,94.3318 282.5,94C 281.833,93.6667 281.167,93.3333 280.5,93C 280.355,91.0843 280.855,89.251 282,87.5C 282.333,87.8333 282.667,88.1667 283,88.5C 284.833,87.3333 286.667,86.1667 288.5,85C 287.167,84.3333 286.167,83.3333 285.5,82C 286.453,80.2962 287.453,78.6295 288.5,77C 287.205,76.2975 285.872,75.6309 284.5,75C 285.022,74.4387 285.355,73.772 285.5,73C 284.518,72.6192 283.852,71.7859 283.5,70.5C 286.16,67.9575 285.827,65.7908 282.5,64C 283.308,63.6924 283.975,63.1924 284.5,62.5C 282.318,61.1767 281.651,59.5101 282.5,57.5C 279.956,55.3888 279.956,53.2221 282.5,51C 279.279,50.3888 276.279,49.2222 273.5,47.5C 273.846,46.3044 274.346,46.3044 275,47.5C 275.667,46.5 275.667,45.5 275,44.5C 273.273,45.374 271.44,45.2074 269.5,44C 269.833,43.6667 270.167,43.3333 270.5,43C 268.842,42.2747 268.342,41.108 269,39.5C 269.626,41.9913 270.459,41.9913 271.5,39.5C 272.626,37.4937 271.96,36.1604 269.5,35.5C 266.957,38.1604 264.791,37.8271 263,34.5C 261.667,37.1667 260.333,37.1667 259,34.5C 258.16,37.4637 257.16,37.797 256,35.5C 254.951,36.5171 253.784,36.6838 252.5,36C 253.623,34.9563 254.956,34.2896 256.5,34C 253.833,33.3333 253.833,32.6667 256.5,32C 254.487,30.2087 254.487,28.8753 256.5,28C 254.892,27.342 253.725,27.842 253,29.5C 251.581,28.5399 250.081,27.7065 248.5,27C 247.751,25.2663 247.251,23.433 247,21.5C 246.667,22.5 246.333,23.5 246,24.5C 244.442,23.6548 243.442,24.3215 243,26.5C 241.983,23.972 240.816,23.972 239.5,26.5C 238.201,25.91 237.368,24.91 237,23.5C 234.833,25 235,26.1667 237.5,27C 236.333,27.5 235.5,28.3333 235,29.5C 234.5,29 234,28.5 233.5,28C 233.833,27 234.167,26 234.5,25C 233.216,24.3162 232.049,24.4829 231,25.5C 230,24.1667 229,22.8333 228,21.5C 227.786,25.5834 225.786,26.2501 222,23.5C 219.843,28.3763 217.01,28.7096 213.5,24.5C 214.59,23.3914 214.59,22.3914 213.5,21.5C 212.885,24.4362 211.718,27.1029 210,29.5C 209.667,29.1667 209.333,28.8333 209,28.5C 206.918,31.1496 205.251,30.8163 204,27.5C 203.042,33.2058 201.209,33.7058 198.5,29C 197.833,28.3333 197.167,28.3333 196.5,29C 197.641,29.7412 197.641,30.5745 196.5,31.5C 198.361,32.5283 199.695,34.0283 200.5,36C 199.451,36.4922 198.451,36.3256 197.5,35.5C 196.117,38.0756 195.283,37.7423 195,34.5C 194.5,35 194,35.5 193.5,36C 193.5,37.3333 193.5,38.6667 193.5,40C 194.308,40.3076 194.975,40.8076 195.5,41.5C 194.349,42.731 193.183,42.731 192,41.5C 191.667,42.1667 191.333,42.8333 191,43.5C 188.496,39.3994 187.662,39.5661 188.5,44C 186.136,45.0118 184.802,46.3451 184.5,48C 189.859,51.3339 189.525,54.3339 183.5,57C 183.577,59.1109 183.911,61.1109 184.5,63C 184,63.5 183.5,64 183,64.5C 182.667,62.5 182.333,60.5 182,58.5C 177.849,59.3259 177.349,61.1593 180.5,64C 177.234,64.4065 176.901,65.9065 179.5,68.5C 180.635,69.1027 181.635,69.4361 182.5,69.5C 181.147,70.6853 179.98,72.0186 179,73.5C 178.28,71.7448 177.113,70.9115 175.5,71C 176.833,71.6667 176.833,72.3333 175.5,73C 176.328,73.9147 177.328,74.5814 178.5,75C 177.5,75.8333 176.5,76.6667 175.5,77.5C 176.165,80.6684 177.165,84.0017 178.5,87.5C 181.797,87.3287 182.131,87.9954 179.5,89.5C 179.863,90.1835 180.196,90.8501 180.5,91.5C 170.939,88.3849 161.605,84.7183 152.5,80.5C 152.619,75.7884 152.619,71.2884 152.5,67C 153.833,63.1908 154.167,59.3574 153.5,55.5C 155.167,52.8333 156.833,50.1667 158.5,47.5C 158.291,46.914 157.957,46.414 157.5,46C 161.133,42.4771 162.799,38.8104 162.5,35C 163.833,34.3333 165.167,33.6667 166.5,33C 166.167,32.6667 165.833,32.3333 165.5,32C 170.392,25.7729 176.392,19.7729 183.5,14C 182.167,12.1598 182.334,11.6598 184,12.5C 185.399,11.7734 186.899,11.2734 188.5,11C 189.551,9.61524 190.884,8.61524 192.5,8C 187.316,7.82614 182.316,7.32614 177.5,6.5 Z"/></g>
<g><path style="opacity:1" fill="#b4138a" d="M 341.5,6.5 C 353.5,6.5 365.5,6.5 377.5,6.5C 375.407,7.74359 373.407,9.24359 371.5,11C 372.449,11.6172 373.282,11.4506 374,10.5C 374.772,11.8491 375.939,12.6824 377.5,13C 375.009,13.6259 375.009,14.4593 377.5,15.5C 376.975,16.1924 376.308,16.6924 375.5,17C 376.667,17.5 377.5,18.3333 378,19.5C 378.249,18.376 378.749,17.376 379.5,16.5C 379.833,16.8333 380.167,17.1667 380.5,17.5C 379.167,18.5 379.167,19.5 380.5,20.5C 379.975,21.1924 379.308,21.6924 378.5,22C 379.717,23.6477 380.55,25.481 381,27.5C 382,28.8333 383,28.8333 384,27.5C 384.093,30.0075 384.926,32.1741 386.5,34C 383.833,34.6667 383.833,35.3333 386.5,36C 383.833,36.6667 383.833,37.3333 386.5,38C 383.833,39 383.833,40 386.5,41C 384.068,42.0875 384.402,42.5875 387.5,42.5C 387.174,44.6607 386.174,46.4941 384.5,48C 386.001,49.2515 387.668,50.2515 389.5,51C 387.996,52.3369 386.996,54.0036 386.5,56C 389.806,58.0485 390.14,60.3818 387.5,63C 387.324,64.6597 387.991,66.3264 389.5,68C 388.167,71.3333 388.167,74.6667 389.5,78C 386.833,79 386.833,80 389.5,81C 389.091,83.947 388.091,86.6137 386.5,89C 387.257,90.5122 388.257,91.8455 389.5,93C 386.833,94 386.833,95 389.5,96C 386.833,97.3333 386.833,98.6667 389.5,100C 386.833,100.667 386.833,101.333 389.5,102C 388.333,102.5 387.5,103.333 387,104.5C 386.667,104.167 386.333,103.833 386,103.5C 385.544,104.744 386.044,105.577 387.5,106C 384.248,108.765 383.915,111.432 386.5,114C 383.833,115.667 383.833,117.333 386.5,119C 384.302,120.67 383.968,122.67 385.5,125C 383.866,125.494 382.199,125.66 380.5,125.5C 379.862,127.46 379.862,129.293 380.5,131C 379.833,131.333 379.167,131.667 378.5,132C 380.985,133.223 381.152,134.723 379,136.5C 378.667,135.833 378.333,135.167 378,134.5C 377.818,137.226 377.318,139.893 376.5,142.5C 373.972,141.502 373.972,140.669 376.5,140C 375.833,139.667 375.167,139.333 374.5,139C 377,138.167 377.167,137 375,135.5C 374.25,136.126 373.416,136.626 372.5,137C 373.747,138.458 373.747,139.958 372.5,141.5C 373.025,142.192 373.692,142.692 374.5,143C 373.033,144.098 372.199,145.598 372,147.5C 371.014,146.829 369.847,146.829 368.5,147.5C 359.339,161.146 347.005,170.979 331.5,177C 319.511,180.996 307.511,184.996 295.5,189C 284.041,192.794 276.208,200.294 272,211.5C 271.505,213.473 271.338,215.473 271.5,217.5C 270.521,220.625 270.187,223.958 270.5,227.5C 269.778,227.918 269.278,228.584 269,229.5C 268.667,228.5 268.333,227.5 268,226.5C 267.729,230.13 266.062,231.13 263,229.5C 264.008,231.366 263.508,232.699 261.5,233.5C 256.895,211.384 264.562,195.551 284.5,186C 298.424,180.803 312.424,175.803 326.5,171C 363.594,156.004 378.761,128.504 372,88.5C 369.386,92.0905 366.552,95.4238 363.5,98.5C 362.791,97.596 361.791,97.2627 360.5,97.5C 360.833,94.8333 361.167,92.1667 361.5,89.5C 370.482,72.9435 373.649,55.2768 371,36.5C 365.239,48.431 357.073,58.431 346.5,66.5C 346.534,63.8015 345.867,61.3015 344.5,59C 345.784,58.3162 346.951,58.4829 348,59.5C 348.772,58.1509 349.939,57.3176 351.5,57C 350.747,55.513 349.914,55.3463 349,56.5C 346.842,55.1741 345.008,53.5075 343.5,51.5C 344.355,50.707 345.189,51.0403 346,52.5C 347.067,51.8095 348.234,51.3095 349.5,51C 347.608,49.0924 344.941,48.0924 341.5,48C 343.246,47.5291 344.913,46.8624 346.5,46C 345.584,45.6258 344.75,45.1258 344,44.5C 344.148,43.175 343.982,42.0084 343.5,41C 342.167,40.6667 340.833,40.3333 339.5,40C 340.978,38.8069 342.312,38.3069 343.5,38.5C 342.478,37.646 341.645,36.646 341,35.5C 339.334,36.3402 339.167,35.8402 340.5,34C 339.551,33.3828 338.718,33.5494 338,34.5C 337.383,33.5509 337.549,32.7175 338.5,32C 336.122,31.0255 336.456,30.3589 339.5,30C 338.833,29 338.167,28 337.5,27C 339.095,27.6171 340.428,27.2837 341.5,26C 340.747,24.513 339.914,24.3463 339,25.5C 337.934,22.4369 335.767,20.9369 332.5,21C 333.34,19.3335 332.84,19.1669 331,20.5C 328.904,19.2845 329.071,18.4512 331.5,18C 329.699,17.6827 329.366,17.016 330.5,16C 329.044,15.5774 328.544,14.7441 329,13.5C 330.493,15.3476 332.326,16.1809 334.5,16C 333.906,14.0177 332.74,12.1844 331,10.5C 329.456,13.2636 328.289,13.0969 327.5,10C 327.833,9.66667 328.167,9.33333 328.5,9C 327.004,8.49256 325.837,8.99256 325,10.5C 324.167,9.66667 323.333,8.83333 322.5,8C 328.893,8.42771 335.226,7.92771 341.5,6.5 Z"/></g>
<g><path style="opacity:1" fill="#ab1386" d="M 377.5,6.5 C 383.833,6.5 390.167,6.5 396.5,6.5C 396.5,64.5 396.5,122.5 396.5,180.5C 395.732,179.737 395.232,178.737 395,177.5C 394.749,179.433 394.249,181.266 393.5,183C 393.057,184.518 393.724,185.685 395.5,186.5C 392.972,187.517 392.972,188.684 395.5,190C 394.457,191.976 393.123,192.476 391.5,191.5C 390.522,191.977 389.689,192.643 389,193.5C 387.951,192.483 386.784,192.316 385.5,193C 388.804,193.902 389.138,195.236 386.5,197C 388.134,199.736 387.468,201.07 384.5,201C 383.167,199.667 383.167,198.333 384.5,197C 384,196.5 383.5,196 383,195.5C 382.505,197.473 382.338,199.473 382.5,201.5C 381.178,201.67 380.011,201.337 379,200.5C 378.217,202.433 378.717,203.933 380.5,205C 378.707,206.78 377.04,208.613 375.5,210.5C 374.667,209.5 373.833,208.5 373,207.5C 372.682,209.061 371.849,210.228 370.5,211C 373.084,212.994 372.918,213.494 370,212.5C 367.217,213.886 367.05,215.386 369.5,217C 366.898,218.015 365.065,219.848 364,222.5C 363.667,221.833 363.333,221.167 363,220.5C 362.777,222.881 361.61,224.547 359.5,225.5C 361.327,217.596 361.827,209.596 361,201.5C 354.286,211.609 345.119,218.442 333.5,222C 323.126,224.844 312.793,227.844 302.5,231C 293.129,234.369 287.296,240.869 285,250.5C 284.5,261.828 284.333,273.162 284.5,284.5C 283.288,285.23 282.288,286.23 281.5,287.5C 280.402,283.639 279.569,283.639 279,287.5C 278.5,274.171 278.333,260.837 278.5,247.5C 282.202,232.779 291.536,223.612 306.5,220C 317.936,216.975 329.269,213.642 340.5,210C 357.462,202.355 366.628,189.189 368,170.5C 368.5,162.841 368.666,155.174 368.5,147.5C 369.847,146.829 371.014,146.829 372,147.5C 372.199,145.598 373.033,144.098 374.5,143C 373.692,142.692 373.025,142.192 372.5,141.5C 373.747,139.958 373.747,138.458 372.5,137C 373.416,136.626 374.25,136.126 375,135.5C 377.167,137 377,138.167 374.5,139C 375.167,139.333 375.833,139.667 376.5,140C 373.972,140.669 373.972,141.502 376.5,142.5C 377.318,139.893 377.818,137.226 378,134.5C 378.333,135.167 378.667,135.833 379,136.5C 381.152,134.723 380.985,133.223 378.5,132C 379.167,131.667 379.833,131.333 380.5,131C 379.862,129.293 379.862,127.46 380.5,125.5C 382.199,125.66 383.866,125.494 385.5,125C 383.968,122.67 384.302,120.67 386.5,119C 383.833,117.333 383.833,115.667 386.5,114C 383.915,111.432 384.248,108.765 387.5,106C 386.044,105.577 385.544,104.744 386,103.5C 386.333,103.833 386.667,104.167 387,104.5C 387.5,103.333 388.333,102.5 389.5,102C 386.833,101.333 386.833,100.667 389.5,100C 386.833,98.6667 386.833,97.3333 389.5,96C 386.833,95 386.833,94 389.5,93C 388.257,91.8455 387.257,90.5122 386.5,89C 388.091,86.6137 389.091,83.947 389.5,81C 386.833,80 386.833,79 389.5,78C 388.167,74.6667 388.167,71.3333 389.5,68C 387.991,66.3264 387.324,64.6597 387.5,63C 390.14,60.3818 389.806,58.0485 386.5,56C 386.996,54.0036 387.996,52.3369 389.5,51C 387.668,50.2515 386.001,49.2515 384.5,48C 386.174,46.4941 387.174,44.6607 387.5,42.5C 384.402,42.5875 384.068,42.0875 386.5,41C 383.833,40 383.833,39 386.5,38C 383.833,37.3333 383.833,36.6667 386.5,36C 383.833,35.3333 383.833,34.6667 386.5,34C 384.926,32.1741 384.093,30.0075 384,27.5C 383,28.8333 382,28.8333 381,27.5C 380.55,25.481 379.717,23.6477 378.5,22C 379.308,21.6924 379.975,21.1924 380.5,20.5C 379.167,19.5 379.167,18.5 380.5,17.5C 380.167,17.1667 379.833,16.8333 379.5,16.5C 378.749,17.376 378.249,18.376 378,19.5C 377.5,18.3333 376.667,17.5 375.5,17C 376.308,16.6924 376.975,16.1924 377.5,15.5C 375.009,14.4593 375.009,13.6259 377.5,13C 375.939,12.6824 374.772,11.8491 374,10.5C 373.282,11.4506 372.449,11.6172 371.5,11C 373.407,9.24359 375.407,7.74359 377.5,6.5 Z"/></g>
<g><path style="opacity:1" fill="#c00c8f" d="M 286.5,6.5 C 304.833,6.5 323.167,6.5 341.5,6.5C 335.226,7.92771 328.893,8.42771 322.5,8C 323.333,8.83333 324.167,9.66667 325,10.5C 325.837,8.99256 327.004,8.49256 328.5,9C 328.167,9.33333 327.833,9.66667 327.5,10C 328.289,13.0969 329.456,13.2636 331,10.5C 332.74,12.1844 333.906,14.0177 334.5,16C 332.326,16.1809 330.493,15.3476 329,13.5C 328.544,14.7441 329.044,15.5774 330.5,16C 329.366,17.016 329.699,17.6827 331.5,18C 329.071,18.4512 328.904,19.2845 331,20.5C 332.84,19.1669 333.34,19.3335 332.5,21C 335.767,20.9369 337.934,22.4369 339,25.5C 339.914,24.3463 340.747,24.513 341.5,26C 340.428,27.2837 339.095,27.6171 337.5,27C 338.167,28 338.833,29 339.5,30C 336.456,30.3589 336.122,31.0255 338.5,32C 337.549,32.7175 337.383,33.5509 338,34.5C 338.718,33.5494 339.551,33.3828 340.5,34C 339.167,35.8402 339.334,36.3402 341,35.5C 341.645,36.646 342.478,37.646 343.5,38.5C 342.312,38.3069 340.978,38.8069 339.5,40C 340.833,40.3333 342.167,40.6667 343.5,41C 343.982,42.0084 344.148,43.175 344,44.5C 344.75,45.1258 345.584,45.6258 346.5,46C 344.913,46.8624 343.246,47.5291 341.5,48C 344.941,48.0924 347.608,49.0924 349.5,51C 348.234,51.3095 347.067,51.8095 346,52.5C 345.189,51.0403 344.355,50.707 343.5,51.5C 345.008,53.5075 346.842,55.1741 349,56.5C 349.914,55.3463 350.747,55.513 351.5,57C 349.939,57.3176 348.772,58.1509 348,59.5C 346.951,58.4829 345.784,58.3162 344.5,59C 345.867,61.3015 346.534,63.8015 346.5,66.5C 335.889,74.6414 324.222,80.9747 311.5,85.5C 311.211,78.611 310.544,70.9444 309.5,62.5C 310.025,61.8076 310.692,61.3076 311.5,61C 309.968,60.3005 308.968,59.1338 308.5,57.5C 306.121,47.2919 301.788,38.1253 295.5,30C 295.833,29.6667 296.167,29.3333 296.5,29C 294.641,28.3161 292.974,27.3161 291.5,26C 291.833,25.6667 292.167,25.3333 292.5,25C 291.809,23.9326 291.309,22.7659 291,21.5C 290.667,22.1667 290.333,22.8333 290,23.5C 286.36,20.0118 282.526,16.0118 278.5,11.5C 277.227,11.7455 276.06,11.7455 275,11.5C 273.833,10.3333 272.667,9.16667 271.5,8C 276.684,7.82614 281.684,7.32614 286.5,6.5 Z"/></g>
<g><path style="opacity:1" fill="#d20997" d="M 276.5,98.5 C 265.283,102.691 255.45,109.025 247,117.5C 242.939,123.184 240.772,129.518 240.5,136.5C 239.505,147.321 239.172,158.321 239.5,169.5C 238.71,168.391 238.21,167.058 238,165.5C 237.768,166.737 237.268,167.737 236.5,168.5C 236.828,157.986 236.494,147.653 235.5,137.5C 235.22,126.107 230.553,116.94 221.5,110C 208.67,102 195.003,95.8335 180.5,91.5C 180.196,90.8501 179.863,90.1835 179.5,89.5C 182.131,87.9954 181.797,87.3287 178.5,87.5C 177.165,84.0017 176.165,80.6684 175.5,77.5C 176.5,76.6667 177.5,75.8333 178.5,75C 177.328,74.5814 176.328,73.9147 175.5,73C 176.833,72.3333 176.833,71.6667 175.5,71C 177.113,70.9115 178.28,71.7448 179,73.5C 179.98,72.0186 181.147,70.6853 182.5,69.5C 181.635,69.4361 180.635,69.1027 179.5,68.5C 176.901,65.9065 177.234,64.4065 180.5,64C 177.349,61.1593 177.849,59.3259 182,58.5C 182.333,60.5 182.667,62.5 183,64.5C 183.5,64 184,63.5 184.5,63C 183.911,61.1109 183.577,59.1109 183.5,57C 189.525,54.3339 189.859,51.3339 184.5,48C 184.802,46.3451 186.136,45.0118 188.5,44C 187.662,39.5661 188.496,39.3994 191,43.5C 191.333,42.8333 191.667,42.1667 192,41.5C 193.183,42.731 194.349,42.731 195.5,41.5C 194.975,40.8076 194.308,40.3076 193.5,40C 193.5,38.6667 193.5,37.3333 193.5,36C 194,35.5 194.5,35 195,34.5C 195.283,37.7423 196.117,38.0756 197.5,35.5C 198.451,36.3256 199.451,36.4922 200.5,36C 199.695,34.0283 198.361,32.5283 196.5,31.5C 197.641,30.5745 197.641,29.7412 196.5,29C 197.167,28.3333 197.833,28.3333 198.5,29C 201.209,33.7058 203.042,33.2058 204,27.5C 205.251,30.8163 206.918,31.1496 209,28.5C 209.333,28.8333 209.667,29.1667 210,29.5C 211.718,27.1029 212.885,24.4362 213.5,21.5C 214.59,22.3914 214.59,23.3914 213.5,24.5C 217.01,28.7096 219.843,28.3763 222,23.5C 225.786,26.2501 227.786,25.5834 228,21.5C 229,22.8333 230,24.1667 231,25.5C 232.049,24.4829 233.216,24.3162 234.5,25C 234.167,26 233.833,27 233.5,28C 234,28.5 234.5,29 235,29.5C 235.5,28.3333 236.333,27.5 237.5,27C 235,26.1667 234.833,25 237,23.5C 237.368,24.91 238.201,25.91 239.5,26.5C 240.816,23.972 241.983,23.972 243,26.5C 243.442,24.3215 244.442,23.6548 246,24.5C 246.333,23.5 246.667,22.5 247,21.5C 247.251,23.433 247.751,25.2663 248.5,27C 250.081,27.7065 251.581,28.5399 253,29.5C 253.725,27.842 254.892,27.342 256.5,28C 254.487,28.8753 254.487,30.2087 256.5,32C 253.833,32.6667 253.833,33.3333 256.5,34C 254.956,34.2896 253.623,34.9563 252.5,36C 253.784,36.6838 254.951,36.5171 256,35.5C 257.16,37.797 258.16,37.4637 259,34.5C 260.333,37.1667 261.667,37.1667 263,34.5C 264.791,37.8271 266.957,38.1604 269.5,35.5C 271.96,36.1604 272.626,37.4937 271.5,39.5C 270.459,41.9913 269.626,41.9913 269,39.5C 268.342,41.108 268.842,42.2747 270.5,43C 270.167,43.3333 269.833,43.6667 269.5,44C 271.44,45.2074 273.273,45.374 275,44.5C 275.667,45.5 275.667,46.5 275,47.5C 274.346,46.3044 273.846,46.3044 273.5,47.5C 276.279,49.2222 279.279,50.3888 282.5,51C 279.956,53.2221 279.956,55.3888 282.5,57.5C 281.651,59.5101 282.318,61.1767 284.5,62.5C 283.975,63.1924 283.308,63.6924 282.5,64C 285.827,65.7908 286.16,67.9575 283.5,70.5C 283.852,71.7859 284.518,72.6192 285.5,73C 285.355,73.772 285.022,74.4387 284.5,75C 285.872,75.6309 287.205,76.2975 288.5,77C 287.453,78.6295 286.453,80.2962 285.5,82C 286.167,83.3333 287.167,84.3333 288.5,85C 286.667,86.1667 284.833,87.3333 283,88.5C 282.667,88.1667 282.333,87.8333 282,87.5C 280.855,89.251 280.355,91.0843 280.5,93C 281.167,93.3333 281.833,93.6667 282.5,94C 279.457,94.3318 277.457,95.8318 276.5,98.5 Z"/></g>
<g><path style="opacity:1" fill="#fdfdfd" d="M 114.5,50.5 C 124.487,63.8127 137.154,73.8127 152.5,80.5C 161.605,84.7183 170.939,88.3849 180.5,91.5C 195.003,95.8335 208.67,102 221.5,110C 230.553,116.94 235.22,126.107 235.5,137.5C 235.5,220.5 235.5,303.5 235.5,386.5C 233.5,386.5 231.5,386.5 229.5,386.5C 229.833,314.998 229.499,243.665 228.5,172.5C 226.3,161.622 220.3,153.455 210.5,148C 190.05,138.017 169.383,128.517 148.5,119.5C 115.104,102.051 100.604,74.3843 105,36.5C 107.448,41.7521 110.614,46.4188 114.5,50.5 Z"/></g>
<g><path style="opacity:1" fill="#fdfdfd" d="M 361.5,89.5 C 350.038,105.594 335.038,117.428 316.5,125C 297.837,131.994 279.837,140.328 262.5,150C 253.998,155.655 248.998,163.488 247.5,173.5C 246.501,244.331 246.167,315.331 246.5,386.5C 244.5,386.5 242.5,386.5 240.5,386.5C 240.5,303.167 240.5,219.833 240.5,136.5C 240.772,129.518 242.939,123.184 247,117.5C 255.45,109.025 265.283,102.691 276.5,98.5C 288.249,94.3618 299.915,90.0285 311.5,85.5C 324.222,80.9747 335.889,74.6414 346.5,66.5C 357.073,58.431 365.239,48.431 371,36.5C 373.649,55.2768 370.482,72.9435 361.5,89.5 Z"/></g>
<g><path style="opacity:1" fill="#fdfcfd" d="M 238.5,56.5 C 244.761,68.3792 248.761,81.0459 250.5,94.5C 250.349,103.803 246.516,111.136 239,116.5C 230.956,111.417 226.79,104.084 226.5,94.5C 227.066,87.6325 228.566,80.9658 231,74.5C 233.791,68.5889 236.291,62.5889 238.5,56.5 Z"/></g>
<g><path style="opacity:1" fill="#fdfdfd" d="M 147.5,128.5 C 163.134,135.814 179.134,142.314 195.5,148C 212.05,153.699 220.717,165.199 221.5,182.5C 221.5,227.5 221.5,272.5 221.5,317.5C 221.5,340.5 221.5,363.5 221.5,386.5C 218.99,386.073 216.657,385.407 214.5,384.5C 214.5,363.167 214.5,341.833 214.5,320.5C 214.5,300.833 214.5,281.167 214.5,261.5C 214.667,244.83 214.5,228.163 214,211.5C 211.135,198.966 203.635,190.466 191.5,186C 175.833,180.333 160.167,174.667 144.5,169C 134.016,164.343 124.849,157.843 117,149.5C 104.66,131.349 100.494,111.349 104.5,89.5C 116.008,105.677 130.341,118.677 147.5,128.5 Z"/></g>
<g><path style="opacity:1" fill="#fdfdfd" d="M 261.5,233.5 C 261.5,253.167 261.5,272.833 261.5,292.5C 261.5,323.167 261.5,353.833 261.5,384.5C 259.393,385.468 257.059,385.802 254.5,385.5C 254.5,316.833 254.5,248.167 254.5,179.5C 255.274,169.452 259.607,161.286 267.5,155C 272.341,152.079 277.341,149.412 282.5,147C 299.235,141.311 315.569,134.644 331.5,127C 344.243,119.752 354.91,110.252 363.5,98.5C 366.552,95.4238 369.386,92.0905 372,88.5C 378.761,128.504 363.594,156.004 326.5,171C 312.424,175.803 298.424,180.803 284.5,186C 264.562,195.551 256.895,211.384 261.5,233.5 Z"/></g>
<g><path style="opacity:1" fill="#aa1586" d="M 107.5,171.5 C 110.064,191.759 121.064,205.259 140.5,212C 152.959,215.264 165.292,218.931 177.5,223C 188.479,228.104 195.312,236.604 198,248.5C 198.5,263.163 198.667,277.83 198.5,292.5C 196.493,293.679 196.16,293.179 197.5,291C 196.299,290.097 195.465,288.931 195,287.5C 194.586,287.957 194.086,288.291 193.5,288.5C 192.833,304.995 192.167,321.328 191.5,337.5C 191.667,308.831 191.5,280.165 191,251.5C 189.158,241.32 183.324,234.487 173.5,231C 158.207,227.791 143.54,222.791 129.5,216C 124,211.833 119.167,207 115,201.5C 113.474,214.373 115.974,226.373 122.5,237.5C 120.5,236.374 118.5,236.207 116.5,237C 117.833,235.16 117.666,234.66 116,235.5C 114.176,234.251 114.343,233.085 116.5,232C 115.584,231.626 114.75,231.126 114,230.5C 112.867,232.211 111.367,232.711 109.5,232C 110.956,231.577 111.456,230.744 111,229.5C 107.197,233.042 105.53,232.042 106,226.5C 102.295,229.257 101.795,228.757 104.5,225C 104,223.5 103.5,222 103,220.5C 102.667,221.5 102.333,222.5 102,223.5C 101.368,221.469 100.201,219.802 98.5,218.5C 98.6931,219.688 98.1931,221.022 97,222.5C 96.7489,220.567 96.2489,218.734 95.5,217C 96.6682,215.594 96.3348,214.428 94.5,213.5C 95.6293,211.471 95.1293,211.137 93,212.5C 92.6667,211.833 92.3333,211.167 92,210.5C 90.9326,211.191 89.7659,211.691 88.5,212C 89.6537,212.914 89.487,213.747 88,214.5C 87.758,212.862 86.9247,211.362 85.5,210C 86.6721,209.581 87.6721,208.915 88.5,208C 85.3528,206.56 82.3528,204.394 79.5,201.5C 79.5,176.833 79.5,152.167 79.5,127.5C 81.1238,127.36 82.2904,128.027 83,129.5C 83.3333,128.5 83.6667,127.5 84,126.5C 84.7826,128.433 84.2826,129.933 82.5,131C 84.6575,132.981 86.3241,135.314 87.5,138C 86.8333,138.333 86.1667,138.667 85.5,139C 87.4049,140.815 89.0716,142.815 90.5,145C 89.8333,145.333 89.1667,145.667 88.5,146C 89.8333,146.333 91.1667,146.667 92.5,147C 91.4829,148.049 91.3162,149.216 92,150.5C 92.4226,149.044 93.2559,148.544 94.5,149C 93.8333,150 93.1667,151 92.5,152C 93.3617,154.734 94.195,154.901 95,152.5C 97.4093,157.488 99.9093,162.322 102.5,167C 101.833,167.333 101.167,167.667 100.5,168C 102.256,168.202 103.922,168.702 105.5,169.5C 104.391,170.965 104.891,171.965 107,172.5C 107.399,172.272 107.565,171.938 107.5,171.5 Z"/></g>
<g><path style="opacity:1" fill="#c11791" d="M 361.5,89.5 C 361.167,92.1667 360.833,94.8333 360.5,97.5C 361.791,97.2627 362.791,97.596 363.5,98.5C 354.91,110.252 344.243,119.752 331.5,127C 315.569,134.644 299.235,141.311 282.5,147C 277.341,149.412 272.341,152.079 267.5,155C 259.607,161.286 255.274,169.452 254.5,179.5C 253.506,189.653 253.172,199.986 253.5,210.5C 252.5,210.5 251.5,210.5 250.5,210.5C 250.649,211.552 250.483,212.552 250,213.5C 249.667,212.167 249.333,210.833 249,209.5C 248.617,210.056 248.117,210.389 247.5,210.5C 247.5,198.167 247.5,185.833 247.5,173.5C 248.998,163.488 253.998,155.655 262.5,150C 279.837,140.328 297.837,131.994 316.5,125C 335.038,117.428 350.038,105.594 361.5,89.5 Z"/></g>
<g><path style="opacity:1" fill="#c51793" d="M 148.5,119.5 C 169.383,128.517 190.05,138.017 210.5,148C 220.3,153.455 226.3,161.622 228.5,172.5C 228.832,184.186 228.499,195.852 227.5,207.5C 226.18,209.27 224.68,209.603 223,208.5C 222.83,199.657 222.33,190.99 221.5,182.5C 220.717,165.199 212.05,153.699 195.5,148C 179.134,142.314 163.134,135.814 147.5,128.5C 147.881,127.069 148.881,126.236 150.5,126C 147.311,125.019 146.978,123.686 149.5,122C 148.001,121.162 147.668,120.329 148.5,119.5 Z"/></g>
<g><path style="opacity:1" fill="#fdfdfd" d="M 368.5,147.5 C 368.666,155.174 368.5,162.841 368,170.5C 366.628,189.189 357.462,202.355 340.5,210C 329.269,213.642 317.936,216.975 306.5,220C 291.536,223.612 282.202,232.779 278.5,247.5C 277.501,291.997 277.168,336.664 277.5,381.5C 275.5,382.167 273.5,382.833 271.5,383.5C 271.5,328.167 271.5,272.833 271.5,217.5C 271.338,215.473 271.505,213.473 272,211.5C 276.208,200.294 284.041,192.794 295.5,189C 307.511,184.996 319.511,180.996 331.5,177C 347.005,170.979 359.339,161.146 368.5,147.5 Z"/></g>
<g><path style="opacity:1" fill="#fdfcfd" d="M 204.5,216.5 C 204.832,272.003 204.499,327.336 203.5,382.5C 201.585,382.784 199.919,382.451 198.5,381.5C 198.5,351.833 198.5,322.167 198.5,292.5C 198.667,277.83 198.5,263.163 198,248.5C 195.312,236.604 188.479,228.104 177.5,223C 165.292,218.931 152.959,215.264 140.5,212C 121.064,205.259 110.064,191.759 107.5,171.5C 107.334,163.493 107.5,155.493 108,147.5C 116.856,161.349 129.023,171.183 144.5,177C 160.954,181.818 176.954,187.818 192.5,195C 199.798,200.432 203.798,207.599 204.5,216.5 Z"/></g>
<g><path style="opacity:1" fill="#a01681" d="M 396.5,180.5 C 396.5,192.5 396.5,204.5 396.5,216.5C 395.118,217.801 393.452,218.634 391.5,219C 394.131,220.691 393.797,221.858 390.5,222.5C 389.469,223.7 388.635,225.034 388,226.5C 387.667,225.833 387.333,225.167 387,224.5C 386.716,226.886 385.716,227.552 384,226.5C 381.095,229.051 379.928,231.551 380.5,234C 379.5,234.333 378.5,234.667 377.5,235C 378.471,236.204 379.471,236.704 380.5,236.5C 377.794,239.194 375.961,238.86 375,235.5C 374.277,238.22 372.777,240.387 370.5,242C 371.784,243.297 371.617,244.464 370,245.5C 369.781,244.062 369.281,242.729 368.5,241.5C 367.352,243.149 366.019,244.649 364.5,246C 365.833,247.84 365.666,248.34 364,247.5C 362.113,249.886 359.613,251.053 356.5,251C 357.711,251.893 357.711,252.726 356.5,253.5C 355.914,253.291 355.414,252.957 355,252.5C 354.184,253.823 353.017,254.489 351.5,254.5C 351.75,251.786 351.917,249.119 352,246.5C 347.599,252.792 341.765,257.292 334.5,260C 325.88,262.214 317.214,264.214 308.5,266C 301.009,268.49 296.842,273.657 296,281.5C 295.5,312.832 295.333,344.165 295.5,375.5C 295.5,376.167 295.167,376.5 294.5,376.5C 294.833,352.824 294.5,329.157 293.5,305.5C 292.808,306.025 292.308,306.692 292,307.5C 291.667,307.167 291.333,306.833 291,306.5C 290.79,308.058 290.29,309.391 289.5,310.5C 289.333,298.829 289.5,287.162 290,275.5C 293.402,266.859 299.568,261.026 308.5,258C 320.136,255.258 331.47,251.591 342.5,247C 350.602,241.734 356.269,234.567 359.5,225.5C 361.61,224.547 362.777,222.881 363,220.5C 363.333,221.167 363.667,221.833 364,222.5C 365.065,219.848 366.898,218.015 369.5,217C 367.05,215.386 367.217,213.886 370,212.5C 372.918,213.494 373.084,212.994 370.5,211C 371.849,210.228 372.682,209.061 373,207.5C 373.833,208.5 374.667,209.5 375.5,210.5C 377.04,208.613 378.707,206.78 380.5,205C 378.717,203.933 378.217,202.433 379,200.5C 380.011,201.337 381.178,201.67 382.5,201.5C 382.338,199.473 382.505,197.473 383,195.5C 383.5,196 384,196.5 384.5,197C 383.167,198.333 383.167,199.667 384.5,201C 387.468,201.07 388.134,199.736 386.5,197C 389.138,195.236 388.804,193.902 385.5,193C 386.784,192.316 387.951,192.483 389,193.5C 389.689,192.643 390.522,191.977 391.5,191.5C 393.123,192.476 394.457,191.976 395.5,190C 392.972,188.684 392.972,187.517 395.5,186.5C 393.724,185.685 393.057,184.518 393.5,183C 394.249,181.266 394.749,179.433 395,177.5C 395.232,178.737 395.732,179.737 396.5,180.5 Z"/></g>
<g><path style="opacity:1" fill="#a01581" d="M 79.5,201.5 C 82.3528,204.394 85.3528,206.56 88.5,208C 87.6721,208.915 86.6721,209.581 85.5,210C 86.9247,211.362 87.758,212.862 88,214.5C 89.487,213.747 89.6537,212.914 88.5,212C 89.7659,211.691 90.9326,211.191 92,210.5C 92.3333,211.167 92.6667,211.833 93,212.5C 95.1293,211.137 95.6293,211.471 94.5,213.5C 96.3348,214.428 96.6682,215.594 95.5,217C 96.2489,218.734 96.7489,220.567 97,222.5C 98.1931,221.022 98.6931,219.688 98.5,218.5C 100.201,219.802 101.368,221.469 102,223.5C 102.333,222.5 102.667,221.5 103,220.5C 103.5,222 104,223.5 104.5,225C 101.795,228.757 102.295,229.257 106,226.5C 105.53,232.042 107.197,233.042 111,229.5C 111.456,230.744 110.956,231.577 109.5,232C 111.367,232.711 112.867,232.211 114,230.5C 114.75,231.126 115.584,231.626 116.5,232C 114.343,233.085 114.176,234.251 116,235.5C 117.666,234.66 117.833,235.16 116.5,237C 118.5,236.207 120.5,236.374 122.5,237.5C 125.297,239.795 127.964,242.295 130.5,245C 142.263,250.921 154.596,255.255 167.5,258C 175.891,261.096 182.057,266.596 186,274.5C 186.5,294.497 186.667,314.497 186.5,334.5C 184.833,334.5 183.167,334.5 181.5,334.5C 181.83,317.991 181.496,301.658 180.5,285.5C 180.777,275.878 176.444,269.378 167.5,266C 154.265,264.588 141.931,260.588 130.5,254C 128.667,252.167 126.833,250.333 125,248.5C 124.867,253.311 125.701,257.977 127.5,262.5C 124.883,262.072 122.549,263.072 120.5,265.5C 119.636,263.803 118.303,262.637 116.5,262C 117.364,260.863 118.364,259.53 119.5,258C 117.91,256.954 116.41,255.787 115,254.5C 114.726,257.647 113.226,259.481 110.5,260C 111.765,258.663 112.265,257.163 112,255.5C 111.667,255.833 111.333,256.167 111,256.5C 110.228,255.151 109.061,254.318 107.5,254C 107.833,253.667 108.167,253.333 108.5,253C 105.6,252.057 103.267,250.39 101.5,248C 102.866,245.562 102.366,245.062 100,246.5C 98.3468,246.18 97.3468,245.18 97,243.5C 96.6667,243.833 96.3333,244.167 96,244.5C 95.4604,242.865 95.9604,241.532 97.5,240.5C 96.21,239.592 94.8767,239.759 93.5,241C 93.6399,242.264 93.6399,243.431 93.5,244.5C 91.997,243.41 91.6637,242.243 92.5,241C 91.8095,239.933 91.3095,238.766 91,237.5C 89.9326,238.191 88.7659,238.691 87.5,239C 88.7112,239.893 88.7112,240.726 87.5,241.5C 86.7379,240.372 86.0712,239.205 85.5,238C 89.8518,237.581 90.1851,236.914 86.5,236C 87.727,234.413 87.3937,233.079 85.5,232C 84.2161,231.316 83.0495,231.483 82,232.5C 81.6232,231.058 80.7899,230.058 79.5,229.5C 79.5,220.167 79.5,210.833 79.5,201.5 Z"/></g>
<g><path style="opacity:1" fill="#fdfcfc" d="M 191.5,337.5 C 191.5,351.5 191.5,365.5 191.5,379.5C 189.447,379.598 187.78,378.931 186.5,377.5C 186.5,363.167 186.5,348.833 186.5,334.5C 186.667,314.497 186.5,294.497 186,274.5C 182.057,266.596 175.891,261.096 167.5,258C 154.596,255.255 142.263,250.921 130.5,245C 127.964,242.295 125.297,239.795 122.5,237.5C 115.974,226.373 113.474,214.373 115,201.5C 119.167,207 124,211.833 129.5,216C 143.54,222.791 158.207,227.791 173.5,231C 183.324,234.487 189.158,241.32 191,251.5C 191.5,280.165 191.667,308.831 191.5,337.5 Z"/></g>
<g><path style="opacity:1" fill="#fdfbfc" d="M 359.5,225.5 C 356.269,234.567 350.602,241.734 342.5,247C 331.47,251.591 320.136,255.258 308.5,258C 299.568,261.026 293.402,266.859 290,275.5C 289.5,287.162 289.333,298.829 289.5,310.5C 289.5,332.833 289.5,355.167 289.5,377.5C 288.22,378.931 286.553,379.598 284.5,379.5C 284.5,347.833 284.5,316.167 284.5,284.5C 284.333,273.162 284.5,261.828 285,250.5C 287.296,240.869 293.129,234.369 302.5,231C 312.793,227.844 323.126,224.844 333.5,222C 345.119,218.442 354.286,211.609 361,201.5C 361.827,209.596 361.327,217.596 359.5,225.5 Z"/></g>
<g><path style="opacity:1" fill="#99147d" d="M 396.5,216.5 C 396.666,225.839 396.5,235.173 396,244.5C 395.571,249.047 394.738,253.381 393.5,257.5C 391.89,257.79 390.723,256.79 390,254.5C 390.135,257.938 388.968,260.772 386.5,263C 384.344,264.912 382.177,266.079 380,266.5C 378.354,264.859 377.354,265.193 377,267.5C 376.667,266.833 376.333,266.167 376,265.5C 374.374,268.128 372.374,270.461 370,272.5C 369.667,271.833 369.333,271.167 369,270.5C 365.952,271.519 364.619,273.519 365,276.5C 368.712,273.756 369.212,274.256 366.5,278C 365.552,278.483 364.552,278.649 363.5,278.5C 363.657,277.127 363.49,275.793 363,274.5C 362.02,276.059 361.187,277.726 360.5,279.5C 358.722,279.431 356.889,279.097 355,278.5C 354.008,281.664 352.175,284.164 349.5,286C 351.891,286.691 351.891,287.691 349.5,289C 347.653,288.859 345.82,288.692 344,288.5C 342.355,290.145 340.688,291.812 339,293.5C 338.333,290.833 337.667,290.833 337,293.5C 334.827,290.723 334.327,290.89 335.5,294C 331.779,297.513 327.446,298.68 322.5,297.5C 322.404,293.689 321.738,293.689 320.5,297.5C 314.65,297.708 313.65,299.542 317.5,303C 314.144,302.485 310.811,302.985 307.5,304.5C 308.025,305.192 308.692,305.692 309.5,306C 307.782,306.346 306.115,306.846 304.5,307.5C 304.704,306.471 304.204,305.471 303,304.5C 302.727,306.329 301.893,307.829 300.5,309C 301.738,308.923 302.738,309.089 303.5,309.5C 301.993,310.389 300.66,311.389 299.5,312.5C 299.5,307.167 299.5,301.833 299.5,296.5C 300.921,291.91 303.921,288.744 308.5,287C 315.773,285.341 323.107,284.007 330.5,283C 337.081,280.802 341.915,276.636 345,270.5C 347.291,265.107 349.457,259.774 351.5,254.5C 353.017,254.489 354.184,253.823 355,252.5C 355.414,252.957 355.914,253.291 356.5,253.5C 357.711,252.726 357.711,251.893 356.5,251C 359.613,251.053 362.113,249.886 364,247.5C 365.666,248.34 365.833,247.84 364.5,246C 366.019,244.649 367.352,243.149 368.5,241.5C 369.281,242.729 369.781,244.062 370,245.5C 371.617,244.464 371.784,243.297 370.5,242C 372.777,240.387 374.277,238.22 375,235.5C 375.961,238.86 377.794,239.194 380.5,236.5C 379.471,236.704 378.471,236.204 377.5,235C 378.5,234.667 379.5,234.333 380.5,234C 379.928,231.551 381.095,229.051 384,226.5C 385.716,227.552 386.716,226.886 387,224.5C 387.333,225.167 387.667,225.833 388,226.5C 388.635,225.034 389.469,223.7 390.5,222.5C 393.797,221.858 394.131,220.691 391.5,219C 393.452,218.634 395.118,217.801 396.5,216.5 Z"/></g>
<g><path style="opacity:1" fill="#99147d" d="M 79.5,229.5 C 80.7899,230.058 81.6232,231.058 82,232.5C 83.0495,231.483 84.2161,231.316 85.5,232C 87.3937,233.079 87.727,234.413 86.5,236C 90.1851,236.914 89.8518,237.581 85.5,238C 86.0712,239.205 86.7379,240.372 87.5,241.5C 88.7112,240.726 88.7112,239.893 87.5,239C 88.7659,238.691 89.9326,238.191 91,237.5C 91.3095,238.766 91.8095,239.933 92.5,241C 91.6637,242.243 91.997,243.41 93.5,244.5C 93.6399,243.431 93.6399,242.264 93.5,241C 94.8767,239.759 96.21,239.592 97.5,240.5C 95.9604,241.532 95.4604,242.865 96,244.5C 96.3333,244.167 96.6667,243.833 97,243.5C 97.3468,245.18 98.3468,246.18 100,246.5C 102.366,245.062 102.866,245.562 101.5,248C 103.267,250.39 105.6,252.057 108.5,253C 108.167,253.333 107.833,253.667 107.5,254C 109.061,254.318 110.228,255.151 111,256.5C 111.333,256.167 111.667,255.833 112,255.5C 112.265,257.163 111.765,258.663 110.5,260C 113.226,259.481 114.726,257.647 115,254.5C 116.41,255.787 117.91,256.954 119.5,258C 118.364,259.53 117.364,260.863 116.5,262C 118.303,262.637 119.636,263.803 120.5,265.5C 122.549,263.072 124.883,262.072 127.5,262.5C 130.459,271.962 136.459,278.795 145.5,283C 153.918,284.297 162.251,285.964 170.5,288C 173.098,290.035 175.098,292.535 176.5,295.5C 176.5,300.5 176.5,305.5 176.5,310.5C 174.767,309.992 174.434,309.159 175.5,308C 172.833,307.333 172.833,306.667 175.5,306C 173.447,305.675 171.447,306.009 169.5,307C 171.286,307.196 172.619,308.029 173.5,309.5C 172.369,310.604 171.535,310.271 171,308.5C 169.812,309.563 169.312,310.897 169.5,312.5C 166.203,312.671 165.869,312.005 168.5,310.5C 167.833,309.833 167.167,309.167 166.5,308.5C 166.846,307.304 167.346,307.304 168,308.5C 168.483,307.552 168.649,306.552 168.5,305.5C 165.901,305.549 163.734,306.549 162,308.5C 161.667,307.833 161.333,307.167 161,306.5C 159.475,306.112 157.808,306.112 156,306.5C 155.085,305.672 154.419,304.672 154,303.5C 151.919,304.333 149.752,304.333 147.5,303.5C 147.261,301.533 147.594,299.699 148.5,298C 148.167,297.833 147.833,297.667 147.5,297.5C 146.813,299.274 145.98,300.941 145,302.5C 142.702,297.481 139.702,296.814 136,300.5C 135.626,299.584 135.126,298.75 134.5,298C 135.051,296.602 135.384,295.268 135.5,294C 134.333,293.5 133.5,292.667 133,291.5C 131.113,293.026 130.113,295.026 130,297.5C 129.517,296.552 129.351,295.552 129.5,294.5C 128.022,294.762 126.689,294.429 125.5,293.5C 126.506,292.604 126.506,291.938 125.5,291.5C 124.833,292.167 124.167,292.833 123.5,293.5C 122.476,292.147 121.143,291.48 119.5,291.5C 119.033,289.289 118.033,287.289 116.5,285.5C 116.891,286.891 116.058,287.891 114,288.5C 111.572,287.37 109.405,285.87 107.5,284C 108.715,281.904 109.549,282.071 110,284.5C 111.615,282.989 111.615,281.656 110,280.5C 109.667,280.833 109.333,281.167 109,281.5C 108.167,280.5 107.333,279.5 106.5,278.5C 106.264,279.247 105.93,280.08 105.5,281C 102.252,281.671 101.919,281.171 104.5,279.5C 102.514,279.685 100.514,279.018 98.5,277.5C 99.376,276.749 100.376,276.249 101.5,276C 99.0698,275.357 97.4032,273.857 96.5,271.5C 95.1861,272.313 94.0195,273.313 93,274.5C 92.6411,271.456 91.9745,271.122 91,273.5C 90.0754,272.953 89.2421,272.287 88.5,271.5C 90.0777,270.702 91.7444,270.202 93.5,270C 91.9391,269.682 90.7724,268.849 90,267.5C 89.6827,269.301 89.016,269.634 88,268.5C 87.0053,269.066 86.172,269.733 85.5,270.5C 81.4691,257.263 79.4691,243.596 79.5,229.5 Z"/></g>
<g><path style="opacity:1" fill="#fdfcfd" d="M 180.5,285.5 C 180.5,315.5 180.5,345.5 180.5,375.5C 179.209,375.737 178.209,375.404 177.5,374.5C 177.831,347.995 177.498,321.661 176.5,295.5C 175.098,292.535 173.098,290.035 170.5,288C 162.251,285.964 153.918,284.297 145.5,283C 136.459,278.795 130.459,271.962 127.5,262.5C 125.701,257.977 124.867,253.311 125,248.5C 126.833,250.333 128.667,252.167 130.5,254C 141.931,260.588 154.265,264.588 167.5,266C 176.444,269.378 180.777,275.878 180.5,285.5 Z"/></g>
<g><path style="opacity:1" fill="#fdfbfc" d="M 351.5,254.5 C 349.457,259.774 347.291,265.107 345,270.5C 341.915,276.636 337.081,280.802 330.5,283C 323.107,284.007 315.773,285.341 308.5,287C 303.921,288.744 300.921,291.91 299.5,296.5C 298.502,322.328 298.169,348.328 298.5,374.5C 297.791,375.404 296.791,375.737 295.5,375.5C 295.333,344.165 295.5,312.832 296,281.5C 296.842,273.657 301.009,268.49 308.5,266C 317.214,264.214 325.88,262.214 334.5,260C 341.765,257.292 347.599,252.792 352,246.5C 351.917,249.119 351.75,251.786 351.5,254.5 Z"/></g>
<g><path style="opacity:1" fill="#921479" d="M 393.5,257.5 C 391.611,269.828 387.945,281.494 382.5,292.5C 382.103,291.475 381.437,291.308 380.5,292C 356.495,308.63 329.828,321.13 300.5,329.5C 299.505,323.872 299.171,318.206 299.5,312.5C 300.66,311.389 301.993,310.389 303.5,309.5C 302.738,309.089 301.738,308.923 300.5,309C 301.893,307.829 302.727,306.329 303,304.5C 304.204,305.471 304.704,306.471 304.5,307.5C 306.115,306.846 307.782,306.346 309.5,306C 308.692,305.692 308.025,305.192 307.5,304.5C 310.811,302.985 314.144,302.485 317.5,303C 313.65,299.542 314.65,297.708 320.5,297.5C 321.738,293.689 322.404,293.689 322.5,297.5C 327.446,298.68 331.779,297.513 335.5,294C 334.327,290.89 334.827,290.723 337,293.5C 337.667,290.833 338.333,290.833 339,293.5C 340.688,291.812 342.355,290.145 344,288.5C 345.82,288.692 347.653,288.859 349.5,289C 351.891,287.691 351.891,286.691 349.5,286C 352.175,284.164 354.008,281.664 355,278.5C 356.889,279.097 358.722,279.431 360.5,279.5C 361.187,277.726 362.02,276.059 363,274.5C 363.49,275.793 363.657,277.127 363.5,278.5C 364.552,278.649 365.552,278.483 366.5,278C 369.212,274.256 368.712,273.756 365,276.5C 364.619,273.519 365.952,271.519 369,270.5C 369.333,271.167 369.667,271.833 370,272.5C 372.374,270.461 374.374,268.128 376,265.5C 376.333,266.167 376.667,266.833 377,267.5C 377.354,265.193 378.354,264.859 380,266.5C 382.177,266.079 384.344,264.912 386.5,263C 388.968,260.772 390.135,257.938 390,254.5C 390.723,256.79 391.89,257.79 393.5,257.5 Z"/></g>
<g><path style="opacity:1" fill="#ae2b8d" d="M 228.5,172.5 C 229.499,243.665 229.833,314.998 229.5,386.5C 229.167,386.5 228.833,386.5 228.5,386.5C 228.667,354.498 228.5,322.498 228,290.5C 227.282,289.549 226.449,289.383 225.5,290C 224.167,290.667 224.167,291.333 225.5,292C 224.584,292.374 223.75,292.874 223,293.5C 222.829,301.677 222.329,309.677 221.5,317.5C 221.5,272.5 221.5,227.5 221.5,182.5C 222.33,190.99 222.83,199.657 223,208.5C 224.68,209.603 226.18,209.27 227.5,207.5C 228.499,195.852 228.832,184.186 228.5,172.5 Z"/></g>
<g><path style="opacity:1" fill="#a41182" d="M 270.5,227.5 C 270.5,248.833 270.5,270.167 270.5,291.5C 269.5,291.5 268.5,291.5 267.5,291.5C 267.5,289.833 267.5,288.167 267.5,286.5C 265.801,286.34 264.134,286.506 262.5,287C 266.04,287.329 267.206,289.162 266,292.5C 265.667,291.5 265.333,290.5 265,289.5C 263.961,290.71 262.794,291.71 261.5,292.5C 261.5,272.833 261.5,253.167 261.5,233.5C 263.508,232.699 264.008,231.366 263,229.5C 266.062,231.13 267.729,230.13 268,226.5C 268.333,227.5 268.667,228.5 269,229.5C 269.278,228.584 269.778,227.918 270.5,227.5 Z"/></g>
<g><path style="opacity:1" fill="#921479" d="M 176.5,310.5 C 176.831,317.863 176.497,325.197 175.5,332.5C 150.506,326.696 127.339,318.03 106,306.5C 105.667,307.167 105.333,307.833 105,308.5C 104.009,307.061 102.676,306.061 101,305.5C 100.601,305.728 100.435,306.062 100.5,306.5C 93.8776,295.245 88.8776,283.245 85.5,270.5C 86.172,269.733 87.0053,269.066 88,268.5C 89.016,269.634 89.6827,269.301 90,267.5C 90.7724,268.849 91.9391,269.682 93.5,270C 91.7444,270.202 90.0777,270.702 88.5,271.5C 89.2421,272.287 90.0754,272.953 91,273.5C 91.9745,271.122 92.6411,271.456 93,274.5C 94.0195,273.313 95.1861,272.313 96.5,271.5C 97.4032,273.857 99.0698,275.357 101.5,276C 100.376,276.249 99.376,276.749 98.5,277.5C 100.514,279.018 102.514,279.685 104.5,279.5C 101.919,281.171 102.252,281.671 105.5,281C 105.93,280.08 106.264,279.247 106.5,278.5C 107.333,279.5 108.167,280.5 109,281.5C 109.333,281.167 109.667,280.833 110,280.5C 111.615,281.656 111.615,282.989 110,284.5C 109.549,282.071 108.715,281.904 107.5,284C 109.405,285.87 111.572,287.37 114,288.5C 116.058,287.891 116.891,286.891 116.5,285.5C 118.033,287.289 119.033,289.289 119.5,291.5C 121.143,291.48 122.476,292.147 123.5,293.5C 124.167,292.833 124.833,292.167 125.5,291.5C 126.506,291.938 126.506,292.604 125.5,293.5C 126.689,294.429 128.022,294.762 129.5,294.5C 129.351,295.552 129.517,296.552 130,297.5C 130.113,295.026 131.113,293.026 133,291.5C 133.5,292.667 134.333,293.5 135.5,294C 135.384,295.268 135.051,296.602 134.5,298C 135.126,298.75 135.626,299.584 136,300.5C 139.702,296.814 142.702,297.481 145,302.5C 145.98,300.941 146.813,299.274 147.5,297.5C 147.833,297.667 148.167,297.833 148.5,298C 147.594,299.699 147.261,301.533 147.5,303.5C 149.752,304.333 151.919,304.333 154,303.5C 154.419,304.672 155.085,305.672 156,306.5C 157.808,306.112 159.475,306.112 161,306.5C 161.333,307.167 161.667,307.833 162,308.5C 163.734,306.549 165.901,305.549 168.5,305.5C 168.649,306.552 168.483,307.552 168,308.5C 167.346,307.304 166.846,307.304 166.5,308.5C 167.167,309.167 167.833,309.833 168.5,310.5C 165.869,312.005 166.203,312.671 169.5,312.5C 169.312,310.897 169.812,309.563 171,308.5C 171.535,310.271 172.369,310.604 173.5,309.5C 172.619,308.029 171.286,307.196 169.5,307C 171.447,306.009 173.447,305.675 175.5,306C 172.833,306.667 172.833,307.333 175.5,308C 174.434,309.159 174.767,309.992 176.5,310.5 Z"/></g>
<g><path style="opacity:1" fill="#a31683" d="M 214.5,261.5 C 214.5,281.167 214.5,300.833 214.5,320.5C 214.167,320.5 213.833,320.5 213.5,320.5C 213.832,310.478 213.499,300.478 212.5,290.5C 211.459,288.009 210.626,288.009 210,290.5C 208.586,289.587 207.086,289.587 205.5,290.5C 205.5,271.833 205.5,253.167 205.5,234.5C 206.15,234.804 206.817,235.137 207.5,235.5C 208.243,234.092 209.077,232.759 210,231.5C 210.92,231.93 211.753,232.264 212.5,232.5C 212.167,233.167 211.833,233.833 211.5,234.5C 213.113,243.486 214.113,252.486 214.5,261.5 Z"/></g>
<g><path style="opacity:1" fill="#a61083" d="M 253.5,210.5 C 253.5,237.167 253.5,263.833 253.5,290.5C 252.542,290.047 251.708,289.381 251,288.5C 250.311,289.357 249.478,290.023 248.5,290.5C 247.5,263.842 247.167,237.175 247.5,210.5C 248.117,210.389 248.617,210.056 249,209.5C 249.333,210.833 249.667,212.167 250,213.5C 250.483,212.552 250.649,211.552 250.5,210.5C 251.5,210.5 252.5,210.5 253.5,210.5 Z"/></g>
<g><path style="opacity:1" fill="#d297c5" d="M 204.5,216.5 C 205.49,222.31 205.823,228.31 205.5,234.5C 205.5,253.167 205.5,271.833 205.5,290.5C 205.5,306.167 205.5,321.833 205.5,337.5C 205.5,352.833 205.5,368.167 205.5,383.5C 204.508,383.672 203.842,383.338 203.5,382.5C 204.499,327.336 204.832,272.003 204.5,216.5 Z"/></g>
<g><path style="opacity:1" fill="#96137b" d="M 213.5,320.5 C 213.666,326.509 213.499,332.509 213,338.5C 210.731,338.274 208.231,337.941 205.5,337.5C 205.5,321.833 205.5,306.167 205.5,290.5C 207.086,289.587 208.586,289.587 210,290.5C 210.626,288.009 211.459,288.009 212.5,290.5C 213.499,300.478 213.832,310.478 213.5,320.5 Z"/></g>
<g><path style="opacity:0.993" fill="#ed811c" d="M 479.5,337.5 C 479.5,338.167 479.5,338.833 479.5,339.5C 466.36,352.473 453.026,365.306 439.5,378C 432.667,383.5 425.833,389 419,394.5C 418.333,395.5 418.333,396.5 419,397.5C 422.435,401.061 424.769,405.061 426,409.5C 418.833,420.667 409.667,429.833 398.5,437C 366.181,455.218 331.515,466.884 294.5,472C 284.66,472.943 274.993,474.11 265.5,475.5C 248.167,475.5 230.833,475.5 213.5,475.5C 176.206,472.938 140.206,464.438 105.5,450C 90.1029,443.216 76.2695,434.05 64,422.5C 60.3053,417.638 56.8053,412.638 53.5,407.5C 55.3864,406.594 57.2197,405.594 59,404.5C 60.1227,401.751 61.6227,399.251 63.5,397C 54.8781,390.713 46.5447,384.047 38.5,377C 25.3831,364.475 12.3831,351.975 -0.5,339.5C -0.5,338.833 -0.5,338.167 -0.5,337.5C 14.1814,338.909 28.848,340.243 43.5,341.5C 44.2978,339.922 44.7978,338.256 45,336.5C 45.4853,323.824 46.152,311.157 47,298.5C 73.2179,333.37 106.718,358.703 147.5,374.5C 144.849,380.106 142.349,385.772 140,391.5C 139.316,392.784 139.483,393.951 140.5,395C 172.476,406.494 205.476,411.994 239.5,411.5C 273.832,411.945 307.165,406.445 339.5,395C 337.603,388.189 334.936,381.356 331.5,374.5C 372.282,358.703 405.782,333.37 432,298.5C 432.793,311.16 433.46,323.827 434,336.5C 434.202,338.256 434.702,339.922 435.5,341.5C 450.153,340.243 464.82,338.909 479.5,337.5 Z"/></g>
<g><path style="opacity:1" fill="#8b1976" d="M 382.5,292.5 C 365.355,330.979 337.355,358.312 298.5,374.5C 298.169,348.328 298.502,322.328 299.5,296.5C 299.5,301.833 299.5,307.167 299.5,312.5C 299.171,318.206 299.505,323.872 300.5,329.5C 329.828,321.13 356.495,308.63 380.5,292C 381.437,291.308 382.103,291.475 382.5,292.5 Z"/></g>
<g><path style="opacity:1" fill="#972780" d="M 271.5,217.5 C 271.5,272.833 271.5,328.167 271.5,383.5C 268.193,384.051 264.86,384.384 261.5,384.5C 261.5,353.833 261.5,323.167 261.5,292.5C 262.794,291.71 263.961,290.71 265,289.5C 265.333,290.5 265.667,291.5 266,292.5C 267.206,289.162 266.04,287.329 262.5,287C 264.134,286.506 265.801,286.34 267.5,286.5C 267.5,288.167 267.5,289.833 267.5,291.5C 268.5,291.5 269.5,291.5 270.5,291.5C 270.5,270.167 270.5,248.833 270.5,227.5C 270.187,223.958 270.521,220.625 271.5,217.5 Z"/></g>
<g><path style="opacity:1" fill="#a11e78" d="M 50.5,310.5 C 74.3631,340.11 104.03,361.943 139.5,376C 140.022,376.561 140.355,377.228 140.5,378C 138.333,383.167 136.167,388.333 134,393.5C 114.914,386.066 98.2475,375.066 84,360.5C 78,371.167 72,381.833 66,392.5C 46.6177,377.789 28.4511,361.623 11.5,344C 24.1502,344.609 36.8168,345.443 49.5,346.5C 49.8333,334.5 50.1667,322.5 50.5,310.5 Z"/></g>
<g><path style="opacity:1" fill="#a11e78" d="M 427.5,310.5 C 428.958,322.303 429.624,334.303 429.5,346.5C 442.165,345.333 454.832,344.499 467.5,344C 450.896,360.942 433.396,376.776 415,391.5C 408.167,381.833 401.333,372.167 394.5,362.5C 379.955,375.863 363.455,386.196 345,393.5C 342.833,388.333 340.667,383.167 338.5,378C 338.645,377.228 338.978,376.561 339.5,376C 374.875,362.16 404.208,340.326 427.5,310.5 Z"/></g>
<g><path style="opacity:1" fill="#a93d90" d="M 240.5,136.5 C 240.5,219.833 240.5,303.167 240.5,386.5C 238.833,386.5 237.167,386.5 235.5,386.5C 235.5,303.5 235.5,220.5 235.5,137.5C 236.494,147.653 236.828,157.986 236.5,168.5C 236.032,197.884 236.532,227.217 238,256.5C 239.484,227.588 239.984,198.588 239.5,169.5C 239.172,158.321 239.505,147.321 240.5,136.5 Z"/></g>
<g><path style="opacity:1" fill="#b20f88" d="M 239.5,169.5 C 239.984,198.588 239.484,227.588 238,256.5C 236.532,227.217 236.032,197.884 236.5,168.5C 237.268,167.737 237.768,166.737 238,165.5C 238.21,167.058 238.71,168.391 239.5,169.5 Z"/></g>
<g><path style="opacity:1" fill="#8c1c77" d="M 176.5,295.5 C 177.498,321.661 177.831,347.995 177.5,374.5C 144.293,360.288 118.626,337.622 100.5,306.5C 100.435,306.062 100.601,305.728 101,305.5C 102.676,306.061 104.009,307.061 105,308.5C 105.333,307.833 105.667,307.167 106,306.5C 127.339,318.03 150.506,326.696 175.5,332.5C 176.497,325.197 176.831,317.863 176.5,310.5C 176.5,305.5 176.5,300.5 176.5,295.5 Z"/></g>
<g><path style="opacity:1" fill="#b95aa3" d="M 254.5,179.5 C 254.5,248.167 254.5,316.833 254.5,385.5C 253.432,386.434 252.099,386.768 250.5,386.5C 251.209,385.596 252.209,385.263 253.5,385.5C 253.5,353.833 253.5,322.167 253.5,290.5C 253.5,263.833 253.5,237.167 253.5,210.5C 253.172,199.986 253.506,189.653 254.5,179.5 Z"/></g>
<g><path style="opacity:1" fill="#8b1576" d="M 294.5,376.5 C 292.883,377.038 291.216,377.371 289.5,377.5C 289.5,355.167 289.5,332.833 289.5,310.5C 290.29,309.391 290.79,308.058 291,306.5C 291.333,306.833 291.667,307.167 292,307.5C 292.308,306.692 292.808,306.025 293.5,305.5C 294.5,329.157 294.833,352.824 294.5,376.5 Z"/></g>
<g><path style="opacity:1" fill="#962f81" d="M 278.5,247.5 C 278.333,260.837 278.5,274.171 279,287.5C 279.569,283.639 280.402,283.639 281.5,287.5C 282.288,286.23 283.288,285.23 284.5,284.5C 284.5,316.167 284.5,347.833 284.5,379.5C 282.401,380.612 280.067,381.279 277.5,381.5C 277.168,336.664 277.501,291.997 278.5,247.5 Z"/></g>
<g><path style="opacity:1" fill="#90257c" d="M 180.5,285.5 C 181.496,301.658 181.83,317.991 181.5,334.5C 183.167,334.5 184.833,334.5 186.5,334.5C 186.5,348.833 186.5,363.167 186.5,377.5C 184.102,377.741 182.102,377.074 180.5,375.5C 180.5,345.5 180.5,315.5 180.5,285.5 Z"/></g>
<g><path style="opacity:1" fill="#9a3385" d="M 247.5,173.5 C 247.5,185.833 247.5,198.167 247.5,210.5C 247.167,237.175 247.5,263.842 248.5,290.5C 249.478,290.023 250.311,289.357 251,288.5C 251.708,289.381 252.542,290.047 253.5,290.5C 253.5,322.167 253.5,353.833 253.5,385.5C 252.209,385.263 251.209,385.596 250.5,386.5C 249.167,386.5 247.833,386.5 246.5,386.5C 246.167,315.331 246.501,244.331 247.5,173.5 Z"/></g>
<g><path style="opacity:1" fill="#8b1676" d="M 198.5,292.5 C 198.5,322.167 198.5,351.833 198.5,381.5C 195.933,381.279 193.599,380.612 191.5,379.5C 191.5,365.5 191.5,351.5 191.5,337.5C 192.167,321.328 192.833,304.995 193.5,288.5C 194.086,288.291 194.586,287.957 195,287.5C 195.465,288.931 196.299,290.097 197.5,291C 196.16,293.179 196.493,293.679 198.5,292.5 Z"/></g>
<g><path style="opacity:1" fill="#881875" d="M 213.5,320.5 C 213.833,320.5 214.167,320.5 214.5,320.5C 214.5,341.833 214.5,363.167 214.5,384.5C 211.455,384.492 208.455,384.159 205.5,383.5C 205.5,368.167 205.5,352.833 205.5,337.5C 208.231,337.941 210.731,338.274 213,338.5C 213.499,332.509 213.666,326.509 213.5,320.5 Z"/></g>
<g><path style="opacity:1" fill="#8c1a77" d="M 228.5,386.5 C 226.167,386.5 223.833,386.5 221.5,386.5C 221.5,363.5 221.5,340.5 221.5,317.5C 222.329,309.677 222.829,301.677 223,293.5C 223.75,292.874 224.584,292.374 225.5,292C 224.167,291.333 224.167,290.667 225.5,290C 226.449,289.383 227.282,289.549 228,290.5C 228.5,322.498 228.667,354.498 228.5,386.5 Z"/></g>
<g><path style="opacity:1" fill="#831772" d="M 106.5,384.5 C 105.503,384.47 104.836,384.97 104.5,386C 103.916,388.919 103.916,391.586 104.5,394C 102.479,396.043 102.146,398.043 103.5,400C 102.692,400.308 102.025,400.808 101.5,401.5C 100.36,407.071 100.36,412.571 101.5,418C 98.8333,418.667 98.8333,419.333 101.5,420C 100.495,422.605 100.162,425.438 100.5,428.5C 100.818,429.647 101.484,430.481 102.5,431C 102.167,432.667 101.833,434.333 101.5,436C 104.167,436.667 104.167,437.333 101.5,438C 103.036,439.468 103.37,440.968 102.5,442.5C 85.6949,435.267 71.6949,424.434 60.5,410C 69.2984,396.242 77.465,382.075 85,367.5C 91.4912,374.173 98.6578,379.84 106.5,384.5 Z"/></g>
<g><path style="opacity:1" fill="#7e196f" d="M 392.5,434.5 C 392.227,432.549 392.893,431.049 394.5,430C 395.061,428.434 394.394,427.101 392.5,426C 393.328,425.085 394.328,424.419 395.5,424C 393.302,422.33 392.968,420.33 394.5,418C 393.833,417.667 393.167,417.333 392.5,417C 393.424,416.15 393.424,415.15 392.5,414C 392.905,413.055 393.572,412.388 394.5,412C 392.326,399.818 389.659,387.651 386.5,375.5C 388.64,372.835 391.14,370.502 394,368.5C 403.096,381.701 411.929,395.034 420.5,408.5C 413.41,419.59 404.077,428.256 392.5,434.5 Z"/></g>
<g><path style="opacity:1" fill="#8a1675" d="M 386.5,375.5 C 389.659,387.651 392.326,399.818 394.5,412C 393.572,412.388 392.905,413.055 392.5,414C 393.424,415.15 393.424,416.15 392.5,417C 393.167,417.333 393.833,417.667 394.5,418C 392.968,420.33 393.302,422.33 395.5,424C 394.328,424.419 393.328,425.085 392.5,426C 394.394,427.101 395.061,428.434 394.5,430C 392.893,431.049 392.227,432.549 392.5,434.5C 384.199,440.149 375.199,444.483 365.5,447.5C 365.389,446.883 365.056,446.383 364.5,446C 367.861,439.035 368.861,432.368 367.5,426C 368.328,425.085 369.328,424.419 370.5,424C 369.5,423.667 368.5,423.333 367.5,423C 368.167,421.333 368.833,419.667 369.5,418C 368.262,418.077 367.262,417.911 366.5,417.5C 367.025,416.808 367.692,416.308 368.5,416C 367.395,414.134 367.395,411.967 368.5,409.5C 368.514,407.407 367.848,405.574 366.5,404C 367.798,401.501 367.464,399.167 365.5,397C 365.827,394.315 365.827,391.482 365.5,388.5C 372.668,384.417 379.668,380.084 386.5,375.5 Z"/></g>
<g><path style="opacity:1" fill="#901578" d="M 106.5,384.5 C 112.888,388.361 119.554,391.694 126.5,394.5C 126.721,395.735 127.388,396.735 128.5,397.5C 127.448,399.11 127.448,400.777 128.5,402.5C 128.333,403.167 128.167,403.833 128,404.5C 127.576,400.81 126.742,400.643 125.5,404C 127.473,406.97 127.473,410.137 125.5,413.5C 126.304,415.136 127.304,416.636 128.5,418C 127.328,418.419 126.328,419.085 125.5,420C 128.167,422 128.167,424 125.5,426C 128.028,427.316 128.028,428.483 125.5,429.5C 125.977,430.478 126.643,431.311 127.5,432C 127.676,433.66 127.009,435.326 125.5,437C 128.982,437.813 129.315,439.479 126.5,442C 130.768,445.235 131.435,449.068 128.5,453.5C 119.303,450.897 110.637,447.23 102.5,442.5C 103.37,440.968 103.036,439.468 101.5,438C 104.167,437.333 104.167,436.667 101.5,436C 101.833,434.333 102.167,432.667 102.5,431C 101.484,430.481 100.818,429.647 100.5,428.5C 100.162,425.438 100.495,422.605 101.5,420C 98.8333,419.333 98.8333,418.667 101.5,418C 100.36,412.571 100.36,407.071 101.5,401.5C 102.025,400.808 102.692,400.308 103.5,400C 102.146,398.043 102.479,396.043 104.5,394C 103.916,391.586 103.916,388.919 104.5,386C 104.836,384.97 105.503,384.47 106.5,384.5 Z"/></g>
<g><path style="opacity:1" fill="#96157a" d="M 365.5,388.5 C 365.827,391.482 365.827,394.315 365.5,397C 367.464,399.167 367.798,401.501 366.5,404C 367.848,405.574 368.514,407.407 368.5,409.5C 367.395,411.967 367.395,414.134 368.5,416C 367.692,416.308 367.025,416.808 366.5,417.5C 367.262,417.911 368.262,418.077 369.5,418C 368.833,419.667 368.167,421.333 367.5,423C 368.5,423.333 369.5,423.667 370.5,424C 369.328,424.419 368.328,425.085 367.5,426C 368.861,432.368 367.861,439.035 364.5,446C 365.056,446.383 365.389,446.883 365.5,447.5C 356.598,451.802 347.265,455.136 337.5,457.5C 337.082,456.778 336.416,456.278 335.5,456C 337.5,455 339.5,454 341.5,453C 338.03,450.877 338.03,449.71 341.5,449.5C 341.64,447.876 340.973,446.71 339.5,446C 340.5,445.667 341.5,445.333 342.5,445C 343.833,442.333 343.833,439.667 342.5,437C 343.305,435.028 344.639,433.528 346.5,432.5C 345.624,431.749 344.624,431.249 343.5,431C 343.833,430.667 344.167,430.333 344.5,430C 343.262,430.077 342.262,429.911 341.5,429.5C 342.522,428.646 343.355,427.646 344,426.5C 344.423,427.956 345.256,428.456 346.5,428C 344.623,423.713 341.957,422.379 338.5,424C 339.023,422.108 339.69,419.942 340.5,417.5C 340.122,415.865 339.456,414.365 338.5,413C 338.905,412.055 339.572,411.388 340.5,411C 339.692,410.692 339.025,410.192 338.5,409.5C 340.289,406.444 340.956,403.111 340.5,399.5C 349.19,396.655 357.523,392.989 365.5,388.5 Z"/></g>
<g><path style="opacity:1" fill="#99157b" d="M 126.5,394.5 C 130.083,396.36 133.749,398.027 137.5,399.5C 137.892,401.179 138.392,402.846 139,404.5C 139.333,403.833 139.667,403.167 140,402.5C 140.5,403.667 141.333,404.5 142.5,405C 141.075,406.714 141.408,408.047 143.5,409C 140.833,409.667 140.833,410.333 143.5,411C 142.584,411.374 141.75,411.874 141,412.5C 140.727,414.101 140.227,415.601 139.5,417C 140.862,419.034 141.862,421.201 142.5,423.5C 141.448,423.351 140.448,423.517 139.5,424C 140.471,425.204 141.471,425.704 142.5,425.5C 138.513,427.095 137.847,429.428 140.5,432.5C 140.023,433.478 139.357,434.311 138.5,435C 138.779,437.246 139.113,439.746 139.5,442.5C 140.675,442.281 141.675,442.614 142.5,443.5C 140.202,445.75 139.369,448.416 140,451.5C 140.984,449.205 141.817,449.539 142.5,452.5C 141.185,454.199 141.185,455.865 142.5,457.5C 137.649,456.771 132.982,455.438 128.5,453.5C 131.435,449.068 130.768,445.235 126.5,442C 129.315,439.479 128.982,437.813 125.5,437C 127.009,435.326 127.676,433.66 127.5,432C 126.643,431.311 125.977,430.478 125.5,429.5C 128.028,428.483 128.028,427.316 125.5,426C 128.167,424 128.167,422 125.5,420C 126.328,419.085 127.328,418.419 128.5,418C 127.304,416.636 126.304,415.136 125.5,413.5C 127.473,410.137 127.473,406.97 125.5,404C 126.742,400.643 127.576,400.81 128,404.5C 128.167,403.833 128.333,403.167 128.5,402.5C 127.448,400.777 127.448,399.11 128.5,397.5C 127.388,396.735 126.721,395.735 126.5,394.5 Z"/></g>
<g><path style="opacity:1" fill="#ab1284" d="M 166.5,408.5 C 171.239,409.185 175.905,410.185 180.5,411.5C 179.209,412.473 179.209,413.473 180.5,414.5C 179.559,414.489 178.892,414.989 178.5,416C 179.573,417.416 179.573,418.75 178.5,420C 181.167,420.667 181.167,421.333 178.5,422C 179.833,423 179.833,424 178.5,425C 179.167,425.333 179.833,425.667 180.5,426C 177.526,427.506 177.193,429.172 179.5,431C 179.043,431.414 178.709,431.914 178.5,432.5C 179.54,435.44 181.54,437.274 184.5,438C 182.82,438.347 181.82,439.347 181.5,441C 182.289,441.546 183.289,442.213 184.5,443C 183.729,444.998 184.395,446.665 186.5,448C 185.167,449 185.167,450 186.5,451C 185.833,452.333 184.833,453.333 183.5,454C 184.044,454.717 184.711,455.217 185.5,455.5C 187.167,455.5 188.833,455.5 190.5,455.5C 192.025,457.036 194.025,458.036 196.5,458.5C 195.418,458.749 194.085,458.915 192.5,459C 194.808,460.588 195.475,462.588 194.5,465C 198.117,465.48 201.117,466.98 203.5,469.5C 194.652,468.481 185.985,467.148 177.5,465.5C 177.297,463.956 176.63,462.622 175.5,461.5C 176.902,460.158 176.569,459.324 174.5,459C 176.891,458.309 176.891,457.309 174.5,456C 176.905,454.385 176.905,453.719 174.5,454C 173.167,457.333 171.833,457.333 170.5,454C 171.91,453.632 172.91,452.799 173.5,451.5C 172.418,451.251 171.085,451.085 169.5,451C 171.149,448.148 170.483,445.481 167.5,443C 168.993,441.632 170.493,441.465 172,442.5C 172.692,441.975 173.192,441.308 173.5,440.5C 172.113,440.193 170.446,440.193 168.5,440.5C 168.34,436.764 167.507,436.764 166,440.5C 165.306,439.182 164.473,438.349 163.5,438C 163.974,436.296 164.141,434.462 164,432.5C 165.205,431.929 166.372,431.262 167.5,430.5C 167.333,430.167 167.167,429.833 167,429.5C 164.457,430.207 162.291,431.54 160.5,433.5C 160.167,433.167 159.833,432.833 159.5,432.5C 161.642,430.43 162.976,427.93 163.5,425C 163.436,422.668 163.269,420.168 163,417.5C 164.049,418.517 165.216,418.684 166.5,418C 165.354,417.355 164.354,416.522 163.5,415.5C 162.914,415.709 162.414,416.043 162,416.5C 161.86,414.744 162.36,413.078 163.5,411.5C 162.145,410.325 162.312,409.325 164,408.5C 164.333,410.167 164.667,411.833 165,413.5C 165.5,413 166,412.5 166.5,412C 166.402,410.715 166.402,409.549 166.5,408.5 Z"/></g>
<g><path style="opacity:1" fill="#af1386" d="M 316.5,407.5 C 318.379,407.393 318.712,407.893 317.5,409C 318.167,409.667 318.833,410.333 319.5,411C 318.5,412 317.5,413 316.5,414C 317.672,414.419 318.672,415.085 319.5,416C 318.167,417 318.167,418 319.5,419C 318.33,420.755 316.663,421.755 314.5,422C 315.833,422.667 315.833,423.333 314.5,424C 316.108,424.658 317.275,424.158 318,422.5C 317.954,424.313 318.12,425.979 318.5,427.5C 317.738,427.911 316.738,428.077 315.5,428C 316.641,428.741 316.641,429.575 315.5,430.5C 316.242,432.35 317.242,433.016 318.5,432.5C 316.922,433.298 315.256,433.798 313.5,434C 314.667,434.5 315.5,435.333 316,436.5C 319.207,433.85 319.707,434.016 317.5,437C 318.872,437.631 320.205,438.298 321.5,439C 321.2,441.024 320.367,441.524 319,440.5C 319.077,441.738 318.911,442.738 318.5,443.5C 317.28,442.289 316.113,442.289 315,443.5C 313.919,441.233 312.419,441.066 310.5,443C 311.833,443.667 311.833,444.333 310.5,445C 312.168,447.081 313.835,448.415 315.5,449C 315.389,450.722 314.889,450.888 314,449.5C 311.266,450.362 311.099,451.195 313.5,452C 312.874,452.75 312.374,453.584 312,454.5C 310.853,453.542 309.853,453.875 309,455.5C 308.383,456.449 308.549,457.282 309.5,458C 306.833,459 306.833,460 309.5,461C 307.5,461.667 305.5,462.333 303.5,463C 304.252,463.671 304.586,464.504 304.5,465.5C 287.295,468.484 269.961,470.151 252.5,470.5C 252.879,469.194 253.212,467.861 253.5,466.5C 254.89,468.203 256.39,468.87 258,468.5C 258.81,466.694 259.976,465.194 261.5,464C 258.61,462.108 258.944,461.275 262.5,461.5C 262.351,462.552 262.517,463.552 263,464.5C 263.862,462.913 264.529,461.246 265,459.5C 265.667,460.833 266.333,462.167 267,463.5C 269.077,459.528 271.077,459.194 273,462.5C 273.333,461.167 273.667,459.833 274,458.5C 275.049,459.517 276.216,459.684 277.5,459C 276.584,458.722 275.918,458.222 275.5,457.5C 280.948,458.025 285.115,456.025 288,451.5C 288.309,445.281 287.809,439.114 286.5,433C 286.978,431.697 287.645,430.531 288.5,429.5C 288.56,428.957 288.893,428.624 289.5,428.5C 290.251,429.376 290.751,430.376 291,431.5C 291.642,429.238 292.475,427.071 293.5,425C 292.672,424.085 291.672,423.419 290.5,423C 291.624,422.751 292.624,422.251 293.5,421.5C 292.691,419.929 292.357,418.262 292.5,416.5C 290.61,416.703 289.11,416.037 288,414.5C 286.893,415.712 286.393,415.379 286.5,413.5C 296.441,411.854 306.441,409.854 316.5,407.5 Z"/></g>
<g><path style="opacity:1" fill="#a3137f" d="M 340.5,399.5 C 340.956,403.111 340.289,406.444 338.5,409.5C 339.025,410.192 339.692,410.692 340.5,411C 339.572,411.388 338.905,412.055 338.5,413C 339.456,414.365 340.122,415.865 340.5,417.5C 339.69,419.942 339.023,422.108 338.5,424C 341.957,422.379 344.623,423.713 346.5,428C 345.256,428.456 344.423,427.956 344,426.5C 343.355,427.646 342.522,428.646 341.5,429.5C 342.262,429.911 343.262,430.077 344.5,430C 344.167,430.333 343.833,430.667 343.5,431C 344.624,431.249 345.624,431.749 346.5,432.5C 344.639,433.528 343.305,435.028 342.5,437C 343.833,439.667 343.833,442.333 342.5,445C 341.5,445.333 340.5,445.667 339.5,446C 340.973,446.71 341.64,447.876 341.5,449.5C 338.03,449.71 338.03,450.877 341.5,453C 339.5,454 337.5,455 335.5,456C 336.416,456.278 337.082,456.778 337.5,457.5C 326.64,460.631 315.64,463.298 304.5,465.5C 304.586,464.504 304.252,463.671 303.5,463C 305.5,462.333 307.5,461.667 309.5,461C 306.833,460 306.833,459 309.5,458C 308.549,457.282 308.383,456.449 309,455.5C 309.853,453.875 310.853,453.542 312,454.5C 312.374,453.584 312.874,452.75 313.5,452C 311.099,451.195 311.266,450.362 314,449.5C 314.889,450.888 315.389,450.722 315.5,449C 313.835,448.415 312.168,447.081 310.5,445C 311.833,444.333 311.833,443.667 310.5,443C 312.419,441.066 313.919,441.233 315,443.5C 316.113,442.289 317.28,442.289 318.5,443.5C 318.911,442.738 319.077,441.738 319,440.5C 320.367,441.524 321.2,441.024 321.5,439C 320.205,438.298 318.872,437.631 317.5,437C 319.707,434.016 319.207,433.85 316,436.5C 315.5,435.333 314.667,434.5 313.5,434C 315.256,433.798 316.922,433.298 318.5,432.5C 317.242,433.016 316.242,432.35 315.5,430.5C 316.641,429.575 316.641,428.741 315.5,428C 316.738,428.077 317.738,427.911 318.5,427.5C 318.12,425.979 317.954,424.313 318,422.5C 317.275,424.158 316.108,424.658 314.5,424C 315.833,423.333 315.833,422.667 314.5,422C 316.663,421.755 318.33,420.755 319.5,419C 318.167,418 318.167,417 319.5,416C 318.672,415.085 317.672,414.419 316.5,414C 317.5,413 318.5,412 319.5,411C 318.833,410.333 318.167,409.667 317.5,409C 318.712,407.893 318.379,407.393 316.5,407.5C 324.489,405.059 332.489,402.393 340.5,399.5 Z"/></g>
<g><path style="opacity:1" fill="#b6138b" d="M 180.5,411.5 C 188.475,412.687 196.475,413.687 204.5,414.5C 204.519,416.06 204.852,417.56 205.5,419C 203.793,420.732 203.127,422.565 203.5,424.5C 204.025,425.192 204.692,425.692 205.5,426C 203.266,428.997 203.932,431.663 207.5,434C 204.833,434.667 204.833,435.333 207.5,436C 207.167,436.333 206.833,436.667 206.5,437C 207.748,438.959 209.415,440.459 211.5,441.5C 204.927,442.638 204.927,443.472 211.5,444C 213.009,445.674 213.676,447.34 213.5,449C 215.23,450.852 216.396,450.686 217,448.5C 218.371,450.041 219.871,451.375 221.5,452.5C 222.423,454.767 223.256,457.1 224,459.5C 226.61,453.947 228.943,448.281 231,442.5C 232.803,448.242 234.803,453.909 237,459.5C 237.717,458.956 238.217,458.289 238.5,457.5C 239.825,456.047 240.658,456.381 241,458.5C 242.204,457.529 242.704,456.529 242.5,455.5C 244.371,456.767 246.204,456.767 248,455.5C 250.058,456.109 250.891,457.109 250.5,458.5C 252.316,457.185 253.983,455.685 255.5,454C 259.118,454.335 261.452,452.835 262.5,449.5C 263.425,448.359 264.259,448.359 265,449.5C 265.075,447.065 265.908,446.398 267.5,447.5C 267.814,452.826 270.48,456.159 275.5,457.5C 275.918,458.222 276.584,458.722 277.5,459C 276.216,459.684 275.049,459.517 274,458.5C 273.667,459.833 273.333,461.167 273,462.5C 271.077,459.194 269.077,459.528 267,463.5C 266.333,462.167 265.667,460.833 265,459.5C 264.529,461.246 263.862,462.913 263,464.5C 262.517,463.552 262.351,462.552 262.5,461.5C 258.944,461.275 258.61,462.108 261.5,464C 259.976,465.194 258.81,466.694 258,468.5C 256.39,468.87 254.89,468.203 253.5,466.5C 253.212,467.861 252.879,469.194 252.5,470.5C 236.146,470.74 219.812,470.406 203.5,469.5C 201.117,466.98 198.117,465.48 194.5,465C 195.475,462.588 194.808,460.588 192.5,459C 194.085,458.915 195.418,458.749 196.5,458.5C 194.025,458.036 192.025,457.036 190.5,455.5C 191.239,455.631 191.906,455.464 192.5,455C 192.186,447.166 193.019,439.333 195,431.5C 196.067,430.809 197.234,430.309 198.5,430C 194.823,429.282 191.157,428.949 187.5,429C 189.91,429.758 190.91,431.425 190.5,434C 189.708,440.172 188.874,446.339 188,452.5C 186.955,453.373 186.122,454.373 185.5,455.5C 184.711,455.217 184.044,454.717 183.5,454C 184.833,453.333 185.833,452.333 186.5,451C 185.167,450 185.167,449 186.5,448C 184.395,446.665 183.729,444.998 184.5,443C 183.289,442.213 182.289,441.546 181.5,441C 181.82,439.347 182.82,438.347 184.5,438C 181.54,437.274 179.54,435.44 178.5,432.5C 178.709,431.914 179.043,431.414 179.5,431C 177.193,429.172 177.526,427.506 180.5,426C 179.833,425.667 179.167,425.333 178.5,425C 179.833,424 179.833,423 178.5,422C 181.167,421.333 181.167,420.667 178.5,420C 179.573,418.75 179.573,417.416 178.5,416C 178.892,414.989 179.559,414.489 180.5,414.5C 179.209,413.473 179.209,412.473 180.5,411.5 Z"/></g>
<g><path style="opacity:1" fill="#a2137f" d="M 137.5,399.5 C 147.195,402.734 156.862,405.734 166.5,408.5C 166.402,409.549 166.402,410.715 166.5,412C 166,412.5 165.5,413 165,413.5C 164.667,411.833 164.333,410.167 164,408.5C 162.312,409.325 162.145,410.325 163.5,411.5C 162.36,413.078 161.86,414.744 162,416.5C 162.414,416.043 162.914,415.709 163.5,415.5C 164.354,416.522 165.354,417.355 166.5,418C 165.216,418.684 164.049,418.517 163,417.5C 163.269,420.168 163.436,422.668 163.5,425C 162.976,427.93 161.642,430.43 159.5,432.5C 159.833,432.833 160.167,433.167 160.5,433.5C 162.291,431.54 164.457,430.207 167,429.5C 167.167,429.833 167.333,430.167 167.5,430.5C 166.372,431.262 165.205,431.929 164,432.5C 164.141,434.462 163.974,436.296 163.5,438C 164.473,438.349 165.306,439.182 166,440.5C 167.507,436.764 168.34,436.764 168.5,440.5C 170.446,440.193 172.113,440.193 173.5,440.5C 173.192,441.308 172.692,441.975 172,442.5C 170.493,441.465 168.993,441.632 167.5,443C 170.483,445.481 171.149,448.148 169.5,451C 171.085,451.085 172.418,451.251 173.5,451.5C 172.91,452.799 171.91,453.632 170.5,454C 171.833,457.333 173.167,457.333 174.5,454C 176.905,453.719 176.905,454.385 174.5,456C 176.891,457.309 176.891,458.309 174.5,459C 176.569,459.324 176.902,460.158 175.5,461.5C 176.63,462.622 177.297,463.956 177.5,465.5C 165.431,464.089 153.764,461.423 142.5,457.5C 141.185,455.865 141.185,454.199 142.5,452.5C 141.817,449.539 140.984,449.205 140,451.5C 139.369,448.416 140.202,445.75 142.5,443.5C 141.675,442.614 140.675,442.281 139.5,442.5C 139.113,439.746 138.779,437.246 138.5,435C 139.357,434.311 140.023,433.478 140.5,432.5C 137.847,429.428 138.513,427.095 142.5,425.5C 141.471,425.704 140.471,425.204 139.5,424C 140.448,423.517 141.448,423.351 142.5,423.5C 141.862,421.201 140.862,419.034 139.5,417C 140.227,415.601 140.727,414.101 141,412.5C 141.75,411.874 142.584,411.374 143.5,411C 140.833,410.333 140.833,409.667 143.5,409C 141.408,408.047 141.075,406.714 142.5,405C 141.333,404.5 140.5,403.667 140,402.5C 139.667,403.167 139.333,403.833 139,404.5C 138.392,402.846 137.892,401.179 137.5,399.5 Z"/></g>
<g><path style="opacity:1" fill="#fbf4f9" d="M 190.5,455.5 C 188.833,455.5 187.167,455.5 185.5,455.5C 186.122,454.373 186.955,453.373 188,452.5C 188.874,446.339 189.708,440.172 190.5,434C 190.91,431.425 189.91,429.758 187.5,429C 191.157,428.949 194.823,429.282 198.5,430C 197.234,430.309 196.067,430.809 195,431.5C 193.019,439.333 192.186,447.166 192.5,455C 191.906,455.464 191.239,455.631 190.5,455.5 Z"/></g>
<g><path style="opacity:1" fill="#b9188d" d="M 286.5,413.5 C 286.393,415.379 286.893,415.712 288,414.5C 289.11,416.037 290.61,416.703 292.5,416.5C 292.357,418.262 292.691,419.929 293.5,421.5C 292.624,422.251 291.624,422.751 290.5,423C 291.672,423.419 292.672,424.085 293.5,425C 292.475,427.071 291.642,429.238 291,431.5C 290.751,430.376 290.251,429.376 289.5,428.5C 288.893,428.624 288.56,428.957 288.5,429.5C 285.813,429.336 283.146,429.503 280.5,430C 282.402,430.199 283.902,431.033 285,432.5C 286.065,438.811 286.398,445.144 286,451.5C 282.222,455.93 277.888,456.597 273,453.5C 270.878,446.367 270.045,439.2 270.5,432C 268.866,431.506 267.199,431.34 265.5,431.5C 264.048,430.698 262.382,430.198 260.5,430C 262.055,428.354 263.721,428.021 265.5,429C 267.891,427.691 267.891,426.691 265.5,426C 268.464,425.16 268.797,424.16 266.5,423C 267.854,421.706 269.188,421.54 270.5,422.5C 271.386,421.675 271.719,420.675 271.5,419.5C 267.107,419.543 266.774,419.043 270.5,418C 268.881,417.764 267.881,416.931 267.5,415.5C 273.824,414.751 280.157,414.085 286.5,413.5 Z"/></g>
<g><path style="opacity:1" fill="#faf3f8" d="M 288.5,429.5 C 287.645,430.531 286.978,431.697 286.5,433C 287.809,439.114 288.309,445.281 288,451.5C 285.115,456.025 280.948,458.025 275.5,457.5C 270.48,456.159 267.814,452.826 267.5,447.5C 267.423,443.123 266.923,438.79 266,434.5C 265.228,433.151 264.061,432.318 262.5,432C 263.448,431.517 264.448,431.351 265.5,431.5C 267.199,431.34 268.866,431.506 270.5,432C 270.045,439.2 270.878,446.367 273,453.5C 277.888,456.597 282.222,455.93 286,451.5C 286.398,445.144 286.065,438.811 285,432.5C 283.902,431.033 282.402,430.199 280.5,430C 283.146,429.503 285.813,429.336 288.5,429.5 Z"/></g>
<g><path style="opacity:1" fill="#faf3f8" d="M 238.5,457.5 C 238.217,458.289 237.717,458.956 237,459.5C 234.803,453.909 232.803,448.242 231,442.5C 228.943,448.281 226.61,453.947 224,459.5C 223.256,457.1 222.423,454.767 221.5,452.5C 219.976,446.427 218.143,440.427 216,434.5C 215.097,433.299 213.931,432.465 212.5,432C 215.833,431.333 219.167,431.333 222.5,432C 221.09,432.368 220.09,433.201 219.5,434.5C 221.502,440.172 223.502,445.839 225.5,451.5C 227.456,447.8 229.123,443.967 230.5,440C 230.091,437.071 228.757,434.738 226.5,433C 231.294,431.993 233.294,432.16 232.5,433.5C 233.865,439.961 235.699,446.294 238,452.5C 241.265,446.538 243.432,440.205 244.5,433.5C 242.956,432.272 244.623,432.106 249.5,433C 247.667,433.5 246.5,434.667 246,436.5C 243.394,443.486 240.894,450.486 238.5,457.5 Z"/></g>
<g><path style="opacity:1" fill="#c21592" d="M 204.5,414.5 C 225.454,416.729 246.454,417.063 267.5,415.5C 267.881,416.931 268.881,417.764 270.5,418C 266.774,419.043 267.107,419.543 271.5,419.5C 271.719,420.675 271.386,421.675 270.5,422.5C 269.188,421.54 267.854,421.706 266.5,423C 268.797,424.16 268.464,425.16 265.5,426C 267.891,426.691 267.891,427.691 265.5,429C 263.721,428.021 262.055,428.354 260.5,430C 262.382,430.198 264.048,430.698 265.5,431.5C 264.448,431.351 263.448,431.517 262.5,432C 264.061,432.318 265.228,433.151 266,434.5C 266.923,438.79 267.423,443.123 267.5,447.5C 265.908,446.398 265.075,447.065 265,449.5C 264.259,448.359 263.425,448.359 262.5,449.5C 261.452,452.835 259.118,454.335 255.5,454C 253.983,455.685 252.316,457.185 250.5,458.5C 250.891,457.109 250.058,456.109 248,455.5C 246.204,456.767 244.371,456.767 242.5,455.5C 242.704,456.529 242.204,457.529 241,458.5C 240.658,456.381 239.825,456.047 238.5,457.5C 240.894,450.486 243.394,443.486 246,436.5C 246.5,434.667 247.667,433.5 249.5,433C 244.623,432.106 242.956,432.272 244.5,433.5C 243.432,440.205 241.265,446.538 238,452.5C 235.699,446.294 233.865,439.961 232.5,433.5C 233.294,432.16 231.294,431.993 226.5,433C 228.757,434.738 230.091,437.071 230.5,440C 229.123,443.967 227.456,447.8 225.5,451.5C 223.502,445.839 221.502,440.172 219.5,434.5C 220.09,433.201 221.09,432.368 222.5,432C 219.167,431.333 215.833,431.333 212.5,432C 213.931,432.465 215.097,433.299 216,434.5C 218.143,440.427 219.976,446.427 221.5,452.5C 219.871,451.375 218.371,450.041 217,448.5C 216.396,450.686 215.23,450.852 213.5,449C 213.676,447.34 213.009,445.674 211.5,444C 204.927,443.472 204.927,442.638 211.5,441.5C 209.415,440.459 207.748,438.959 206.5,437C 206.833,436.667 207.167,436.333 207.5,436C 204.833,435.333 204.833,434.667 207.5,434C 203.932,431.663 203.266,428.997 205.5,426C 204.692,425.692 204.025,425.192 203.5,424.5C 203.127,422.565 203.793,420.732 205.5,419C 204.852,417.56 204.519,416.06 204.5,414.5 Z"/></g>
</svg>
